<svg width="224" height="122" viewBox="0 0 224 122" fill="none" xmlns="http://www.w3.org/2000/svg">
<path d="M121.295 22.8849L121.327 22.8326C122.46 20.8945 121.044 18.4685 118.781 18.4685H103.203C92.9004 18.4685 86.4572 29.5042 91.6103 38.3336L111.756 72.8491C116.906 81.6784 129.789 81.6784 134.942 72.8491C136.553 70.0884 136.556 66.6864 134.942 63.9222L121.295 40.54C118.07 35.0082 118.07 28.4097 121.295 22.8849Z" fill="white"/>
<path d="M177.042 18.472H136.751C126.448 18.472 120.005 29.5077 125.158 38.337L140.119 63.9745L142.692 68.3874L145.297 72.8491C150.45 81.6784 163.333 81.6784 168.486 72.8491L188.628 38.3336C193.782 29.5042 187.338 18.4685 177.035 18.4685L177.042 18.472Z" fill="white"/>
<path d="M78.696 25.0913C73.5428 16.262 60.6634 16.262 55.5102 25.0913L35.3646 59.6068C30.2114 68.4361 36.6511 79.4719 46.9575 79.4719H87.2487C97.555 79.4719 103.995 68.4361 98.8416 59.6068L78.696 25.0913Z" fill="white"/>
</svg>
