<?xml version="1.0" encoding="UTF-8"?>
<svg id="Layer_1" data-name="Layer 1" xmlns="http://www.w3.org/2000/svg" viewBox="0 0 224 122">
  <path d="M121.29,34.92l.03-.05c1.13-1.94-.28-4.36-2.55-4.36h-15.58c-10.3,0-16.75,11.04-11.59,19.87l20.15,34.52c5.15,8.83,18.03,8.83,23.19,0,1.61-2.76,1.61-6.16,0-8.93l-13.65-23.38c-3.22-5.53-3.22-12.13,0-17.66Z"/>
  <path d="M177.04,30.5h-40.29c-10.3,0-16.75,11.04-11.59,19.87l14.96,25.64,2.57,4.41,2.6,4.46c5.15,8.83,18.04,8.83,23.19,0l20.14-34.52c5.15-8.83-1.29-19.87-11.59-19.87h0Z"/>
  <path d="M78.7,37.12c-5.15-8.83-18.03-8.83-23.19,0l-20.15,34.52c-5.15,8.83,1.29,19.87,11.59,19.87h40.29c10.31,0,16.75-11.04,11.59-19.87l-20.15-34.52Z"/>
</svg>