<svg width="196" height="128" viewBox="0 0 196 128" fill="none" xmlns="http://www.w3.org/2000/svg">
<g clip-path="url(#clip0_283_1007)">
<g clip-path="url(#clip1_283_1007)">
<path d="M137 6C137 2.68629 139.686 0 143 0H190C193.314 0 196 2.68629 196 6V53C196 56.3137 193.314 59 190 59H143C139.686 59 137 56.3137 137 53V6Z" fill="#211ADB"/>
<path d="M145.239 36.4865V35.8239H148.72V36.4865H147.371V40.1875H146.587V36.4865H145.239ZM149.658 40.1875L148.733 36.9148H149.519L150.094 39.2159H150.124L150.712 36.9148H151.49L152.078 39.2031H152.11L152.677 36.9148H153.465L152.538 40.1875H151.735L151.121 37.9759H151.077L150.463 40.1875H149.658ZM154.004 40.1875V36.9148H154.775V40.1875H154.004ZM154.392 36.4503C154.269 36.4503 154.164 36.4098 154.076 36.3288C153.988 36.2464 153.944 36.1477 153.944 36.0327C153.944 35.9162 153.988 35.8175 154.076 35.7365C154.164 35.6541 154.269 35.6129 154.392 35.6129C154.515 35.6129 154.62 35.6541 154.707 35.7365C154.795 35.8175 154.839 35.9162 154.839 36.0327C154.839 36.1477 154.795 36.2464 154.707 36.3288C154.62 36.4098 154.515 36.4503 154.392 36.4503ZM156.339 35.8239V40.1875H155.568V35.8239H156.339ZM157.133 40.1875V36.9148H157.904V40.1875H157.133ZM157.52 36.4503C157.398 36.4503 157.293 36.4098 157.205 36.3288C157.117 36.2464 157.073 36.1477 157.073 36.0327C157.073 35.9162 157.117 35.8175 157.205 35.7365C157.293 35.6541 157.398 35.6129 157.52 35.6129C157.644 35.6129 157.749 35.6541 157.836 35.7365C157.924 35.8175 157.968 35.9162 157.968 36.0327C157.968 36.1477 157.924 36.2464 157.836 36.3288C157.749 36.4098 157.644 36.4503 157.52 36.4503ZM160.12 41.483C159.843 41.483 159.605 41.4453 159.407 41.37C159.208 41.2962 159.048 41.1967 158.927 41.0717C158.806 40.9467 158.723 40.8082 158.676 40.6562L159.37 40.4879C159.402 40.5518 159.447 40.6151 159.507 40.6776C159.566 40.7415 159.647 40.794 159.748 40.8352C159.85 40.8778 159.978 40.8991 160.133 40.8991C160.352 40.8991 160.533 40.8459 160.676 40.7393C160.82 40.6342 160.892 40.4609 160.892 40.2195V39.5994H160.853C160.814 39.679 160.755 39.7607 160.679 39.8445C160.603 39.9283 160.503 39.9986 160.378 40.0554C160.255 40.1122 160.099 40.1406 159.912 40.1406C159.66 40.1406 159.432 40.0817 159.228 39.9638C159.025 39.8445 158.863 39.6669 158.742 39.4311C158.623 39.1939 158.563 38.897 158.563 38.5405C158.563 38.1811 158.623 37.8778 158.742 37.6307C158.863 37.3821 159.025 37.1939 159.23 37.0661C159.434 36.9368 159.662 36.8722 159.914 36.8722C160.105 36.8722 160.263 36.9048 160.387 36.9702C160.512 37.0341 160.611 37.1115 160.685 37.2024C160.759 37.2919 160.815 37.3764 160.853 37.456H160.896V36.9148H161.657V40.2408C161.657 40.5206 161.59 40.7521 161.456 40.9354C161.323 41.1186 161.14 41.2557 160.909 41.3466C160.677 41.4375 160.414 41.483 160.12 41.483ZM160.127 39.5355C160.29 39.5355 160.429 39.4957 160.544 39.4162C160.659 39.3366 160.747 39.2223 160.806 39.0732C160.866 38.924 160.896 38.745 160.896 38.5362C160.896 38.3303 160.866 38.1499 160.806 37.995C160.748 37.8402 160.662 37.7202 160.547 37.6349C160.433 37.5483 160.293 37.505 160.127 37.505C159.955 37.505 159.811 37.5497 159.696 37.6392C159.581 37.7287 159.495 37.8516 159.436 38.0078C159.378 38.1626 159.349 38.3388 159.349 38.5362C159.349 38.7365 159.378 38.9119 159.436 39.0625C159.496 39.2116 159.583 39.3281 159.699 39.4119C159.815 39.4943 159.958 39.5355 160.127 39.5355ZM163.218 38.2699V40.1875H162.447V35.8239H163.201V37.4709H163.24C163.316 37.2862 163.435 37.1406 163.596 37.0341C163.757 36.9261 163.963 36.8722 164.213 36.8722C164.441 36.8722 164.639 36.9197 164.808 37.0149C164.977 37.1101 165.108 37.2493 165.2 37.4325C165.294 37.6158 165.341 37.8395 165.341 38.1037V40.1875H164.569V38.223C164.569 38.0028 164.512 37.8317 164.399 37.7095C164.287 37.5859 164.129 37.5241 163.926 37.5241C163.789 37.5241 163.667 37.554 163.559 37.6136C163.453 37.6719 163.369 37.7564 163.308 37.8672C163.248 37.978 163.218 38.1122 163.218 38.2699ZM167.761 36.9148V37.5114H165.88V36.9148H167.761ZM166.344 36.1307H167.115V39.2031C167.115 39.3068 167.131 39.3864 167.162 39.4418C167.195 39.4957 167.238 39.5327 167.29 39.5526C167.343 39.5724 167.401 39.5824 167.465 39.5824C167.513 39.5824 167.557 39.5788 167.597 39.5717C167.638 39.5646 167.669 39.5582 167.691 39.5526L167.821 40.1555C167.779 40.1697 167.721 40.1854 167.644 40.2024C167.569 40.2195 167.476 40.2294 167.367 40.2322C167.174 40.2379 167 40.2088 166.845 40.1449C166.69 40.0795 166.567 39.9787 166.476 39.8423C166.387 39.706 166.343 39.5355 166.344 39.331V36.1307ZM171.401 35.7642C171.61 35.7656 171.813 35.8026 172.01 35.875C172.209 35.946 172.388 36.0625 172.547 36.2244C172.706 36.3849 172.833 36.6001 172.926 36.87C173.02 37.1399 173.067 37.4737 173.067 37.8714C173.068 38.2464 173.029 38.5817 172.948 38.8771C172.868 39.1712 172.754 39.4197 172.605 39.6229C172.455 39.826 172.276 39.9808 172.066 40.0874C171.855 40.1939 171.619 40.2472 171.356 40.2472C171.08 40.2472 170.836 40.1932 170.623 40.0852C170.411 39.9773 170.24 39.8295 170.11 39.642C169.979 39.4545 169.899 39.2401 169.869 38.9986H170.646C170.686 39.1719 170.767 39.3097 170.889 39.4119C171.013 39.5128 171.169 39.5632 171.356 39.5632C171.659 39.5632 171.892 39.4318 172.055 39.169C172.218 38.9062 172.3 38.5412 172.3 38.0739H172.27C172.2 38.1989 172.11 38.3068 171.999 38.3977C171.889 38.4872 171.763 38.5561 171.622 38.6044C171.483 38.6527 171.335 38.6768 171.179 38.6768C170.923 38.6768 170.693 38.6158 170.489 38.4936C170.286 38.3714 170.124 38.2038 170.005 37.9908C169.887 37.7777 169.828 37.5341 169.826 37.2599C169.826 36.9759 169.892 36.7209 170.022 36.495C170.154 36.2678 170.338 36.0888 170.574 35.9581C170.81 35.826 171.085 35.7614 171.401 35.7642ZM171.403 36.4034C171.249 36.4034 171.111 36.4411 170.987 36.5163C170.865 36.5902 170.769 36.6911 170.698 36.8189C170.628 36.9453 170.593 37.0866 170.593 37.2429C170.595 37.3977 170.629 37.5384 170.698 37.6648C170.767 37.7912 170.862 37.8913 170.981 37.9652C171.102 38.0391 171.24 38.076 171.394 38.076C171.509 38.076 171.617 38.054 171.716 38.0099C171.816 37.9659 171.902 37.9048 171.976 37.8267C172.051 37.7472 172.11 37.657 172.151 37.5561C172.193 37.4553 172.214 37.3487 172.213 37.2365C172.213 37.0874 172.177 36.9496 172.106 36.8232C172.036 36.6967 171.941 36.5952 171.818 36.5185C171.698 36.4418 171.559 36.4034 171.403 36.4034ZM175.389 40.2706C175.039 40.2706 174.737 40.1818 174.486 40.0043C174.236 39.8253 174.044 39.5675 173.909 39.2308C173.775 38.8928 173.708 38.4858 173.708 38.0099C173.71 37.5341 173.777 37.1293 173.911 36.7955C174.046 36.4602 174.238 36.2045 174.488 36.0284C174.74 35.8523 175.04 35.7642 175.389 35.7642C175.739 35.7642 176.039 35.8523 176.291 36.0284C176.542 36.2045 176.735 36.4602 176.868 36.7955C177.003 37.1307 177.07 37.5355 177.07 38.0099C177.07 38.4872 177.003 38.8949 176.868 39.233C176.735 39.5696 176.542 39.8267 176.291 40.0043C176.041 40.1818 175.74 40.2706 175.389 40.2706ZM175.389 39.6037C175.662 39.6037 175.877 39.4695 176.035 39.201C176.194 38.9311 176.274 38.5341 176.274 38.0099C176.274 37.6634 176.237 37.3722 176.165 37.1364C176.093 36.9006 175.99 36.723 175.858 36.6037C175.726 36.483 175.57 36.4226 175.389 36.4226C175.118 36.4226 174.904 36.5575 174.746 36.8274C174.588 37.0959 174.509 37.4901 174.507 38.0099C174.506 38.358 174.541 38.6506 174.612 38.8878C174.684 39.125 174.786 39.304 174.919 39.4247C175.051 39.544 175.208 39.6037 175.389 39.6037ZM179.391 40.2706C179.04 40.2706 178.739 40.1818 178.488 40.0043C178.238 39.8253 178.045 39.5675 177.911 39.2308C177.777 38.8928 177.71 38.4858 177.71 38.0099C177.712 37.5341 177.779 37.1293 177.913 36.7955C178.048 36.4602 178.24 36.2045 178.49 36.0284C178.741 35.8523 179.042 35.7642 179.391 35.7642C179.741 35.7642 180.041 35.8523 180.293 36.0284C180.544 36.2045 180.737 36.4602 180.87 36.7955C181.005 37.1307 181.072 37.5355 181.072 38.0099C181.072 38.4872 181.005 38.8949 180.87 39.233C180.737 39.5696 180.544 39.8267 180.293 40.0043C180.043 40.1818 179.742 40.2706 179.391 40.2706ZM179.391 39.6037C179.664 39.6037 179.879 39.4695 180.037 39.201C180.196 38.9311 180.276 38.5341 180.276 38.0099C180.276 37.6634 180.239 37.3722 180.167 37.1364C180.094 36.9006 179.992 36.723 179.86 36.6037C179.728 36.483 179.572 36.4226 179.391 36.4226C179.12 36.4226 178.906 36.5575 178.748 36.8274C178.59 37.0959 178.511 37.4901 178.509 38.0099C178.508 38.358 178.543 38.6506 178.614 38.8878C178.686 39.125 178.788 39.304 178.92 39.4247C179.053 39.544 179.21 39.6037 179.391 39.6037Z" fill="white"/>
<path d="M147.018 49.1938L147.711 44.9757H148.122L147.43 49.1938H147.018ZM145.099 48.024L145.165 47.612H148.312L148.246 48.024H145.099ZM145.536 49.1938L146.228 44.9757H146.639L145.947 49.1938H145.536ZM145.346 46.5575L145.412 46.1456H148.559L148.493 46.5575H145.346ZM149.096 49.1938V48.8231L150.488 47.299C150.651 47.1205 150.786 46.9653 150.892 46.8335C150.997 46.7003 151.076 46.5753 151.126 46.4586C151.179 46.3405 151.205 46.217 151.205 46.0879C151.205 45.9396 151.169 45.8112 151.098 45.7027C151.028 45.5942 150.931 45.5105 150.809 45.4514C150.687 45.3924 150.55 45.3629 150.397 45.3629C150.235 45.3629 150.094 45.3965 149.973 45.4638C149.854 45.5297 149.761 45.6224 149.695 45.7419C149.63 45.8613 149.598 46.0014 149.598 46.162H149.112C149.112 45.9149 149.169 45.6979 149.283 45.5112C149.397 45.3244 149.552 45.1789 149.749 45.0745C149.946 44.9702 150.168 44.918 150.414 44.918C150.661 44.918 150.88 44.9702 151.071 45.0745C151.262 45.1789 151.411 45.3196 151.52 45.4968C151.628 45.6739 151.683 45.8709 151.683 46.0879C151.683 46.243 151.654 46.3948 151.598 46.5431C151.543 46.69 151.447 46.8541 151.31 47.0353C151.174 47.2152 150.985 47.4349 150.743 47.6944L149.796 48.7078V48.7407H151.757V49.1938H149.096ZM154.09 44.9757V49.1938H153.58V45.5112H153.555L152.525 46.195V45.6759L153.58 44.9757H154.09ZM156.786 44.9757V49.1938H156.276V45.5112H156.251L155.221 46.195V45.6759L156.276 44.9757H156.786ZM158.247 49.1938H157.711L159.26 44.9757H159.787L161.336 49.1938H160.801L159.54 45.643H159.507L158.247 49.1938ZM158.444 47.5461H160.603V47.9992H158.444V47.5461ZM163.295 49.1938H161.993V44.9757H163.353C163.762 44.9757 164.112 45.0601 164.403 45.229C164.694 45.3965 164.917 45.6375 165.072 45.9519C165.228 46.265 165.305 46.6399 165.305 47.0765C165.305 47.5159 165.227 47.8942 165.07 48.2114C164.914 48.5272 164.686 48.7702 164.387 48.9405C164.087 49.1094 163.723 49.1938 163.295 49.1938ZM162.504 48.7407H163.262C163.611 48.7407 163.9 48.6734 164.129 48.5389C164.358 48.4043 164.529 48.2128 164.642 47.9642C164.755 47.7157 164.811 47.4198 164.811 47.0765C164.811 46.736 164.755 46.4428 164.644 46.197C164.533 45.9499 164.367 45.7604 164.146 45.6286C163.924 45.4954 163.649 45.4288 163.32 45.4288H162.504V48.7407ZM166.162 49.1938V44.9757H167.637C167.931 44.9757 168.173 45.0265 168.364 45.1281C168.555 45.2283 168.697 45.3636 168.79 45.5338C168.883 45.7027 168.93 45.8902 168.93 46.0961C168.93 46.2774 168.898 46.427 168.833 46.5451C168.77 46.6632 168.686 46.7566 168.582 46.8252C168.479 46.8939 168.367 46.9447 168.246 46.9777V47.0188C168.375 47.0271 168.505 47.0724 168.636 47.1548C168.766 47.2372 168.875 47.3553 168.963 47.509C169.051 47.6628 169.095 47.8509 169.095 48.0734C169.095 48.2849 169.047 48.475 168.951 48.6439C168.855 48.8128 168.703 48.9467 168.496 49.0456C168.288 49.1444 168.018 49.1938 167.686 49.1938H166.162ZM166.673 48.7407H167.686C168.02 48.7407 168.257 48.6762 168.397 48.5471C168.538 48.4167 168.609 48.2588 168.609 48.0734C168.609 47.9306 168.572 47.7988 168.5 47.6779C168.427 47.5557 168.323 47.4582 168.189 47.3855C168.054 47.3113 167.895 47.2742 167.711 47.2742H166.673V48.7407ZM166.673 46.8294H167.62C167.774 46.8294 167.913 46.7992 168.036 46.7387C168.161 46.6783 168.26 46.5932 168.333 46.4833C168.407 46.3735 168.444 46.2444 168.444 46.0961C168.444 45.9108 168.38 45.7535 168.25 45.6245C168.121 45.494 167.917 45.4288 167.637 45.4288H166.673V46.8294Z" fill="white"/>
<path d="M69 6.5C69 3.18629 71.6863 0.5 75 0.5H121C124.314 0.5 127 3.18629 127 6.5V52.5C127 55.8137 124.314 58.5 121 58.5H75C71.6863 58.5 69 55.8137 69 52.5V6.5Z" fill="#E7FE96"/>
<path d="M77.4304 35.3239H78.3977L79.6932 38.4858H79.7443L81.0398 35.3239H82.0071V39.6875H81.2486V36.6896H81.2081L80.0021 39.6747H79.4354L78.2294 36.6832H78.1889V39.6875H77.4304V35.3239ZM84.2614 39.7514C83.9418 39.7514 83.6648 39.6811 83.4304 39.5405C83.196 39.3999 83.0142 39.2031 82.8849 38.9503C82.7571 38.6974 82.6932 38.402 82.6932 38.0639C82.6932 37.7259 82.7571 37.4297 82.8849 37.1754C83.0142 36.9212 83.196 36.7237 83.4304 36.5831C83.6648 36.4425 83.9418 36.3722 84.2614 36.3722C84.581 36.3722 84.858 36.4425 85.0923 36.5831C85.3267 36.7237 85.5078 36.9212 85.6357 37.1754C85.7649 37.4297 85.8295 37.7259 85.8295 38.0639C85.8295 38.402 85.7649 38.6974 85.6357 38.9503C85.5078 39.2031 85.3267 39.3999 85.0923 39.5405C84.858 39.6811 84.581 39.7514 84.2614 39.7514ZM84.2656 39.1335C84.4389 39.1335 84.5838 39.0859 84.7003 38.9908C84.8168 38.8942 84.9034 38.7649 84.9602 38.603C85.0185 38.4411 85.0476 38.2607 85.0476 38.0618C85.0476 37.8615 85.0185 37.6804 84.9602 37.5185C84.9034 37.3551 84.8168 37.2251 84.7003 37.1286C84.5838 37.032 84.4389 36.9837 84.2656 36.9837C84.0881 36.9837 83.9403 37.032 83.8224 37.1286C83.706 37.2251 83.6186 37.3551 83.5604 37.5185C83.5036 37.6804 83.4751 37.8615 83.4751 38.0618C83.4751 38.2607 83.5036 38.4411 83.5604 38.603C83.6186 38.7649 83.706 38.8942 83.8224 38.9908C83.9403 39.0859 84.0881 39.1335 84.2656 39.1335ZM89.0708 37.2798L88.3677 37.3565C88.3478 37.2855 88.313 37.2188 88.2633 37.1562C88.215 37.0938 88.1497 37.0433 88.0673 37.005C87.9849 36.9666 87.8841 36.9474 87.7647 36.9474C87.6042 36.9474 87.4693 36.9822 87.3599 37.0518C87.252 37.1214 87.1987 37.2116 87.2001 37.3224C87.1987 37.4176 87.2335 37.495 87.3045 37.5547C87.377 37.6143 87.4963 37.6634 87.6625 37.7017L88.2207 37.821C88.5304 37.8878 88.7605 37.9936 88.911 38.1385C89.063 38.2834 89.1397 38.473 89.1412 38.7074C89.1397 38.9134 89.0794 39.0952 88.96 39.2528C88.8422 39.4091 88.6781 39.5312 88.4679 39.6193C88.2576 39.7074 88.0162 39.7514 87.7434 39.7514C87.3429 39.7514 87.0204 39.6676 86.7761 39.5C86.5318 39.331 86.3862 39.0959 86.3393 38.7947L87.0914 38.7223C87.1255 38.87 87.198 38.9815 87.3088 39.0568C87.4196 39.1321 87.5637 39.1697 87.7413 39.1697C87.9245 39.1697 88.0716 39.1321 88.1824 39.0568C88.2946 38.9815 88.3507 38.8885 88.3507 38.7777C88.3507 38.6839 88.3145 38.6065 88.242 38.5455C88.171 38.4844 88.0602 38.4375 87.9096 38.4048L87.3514 38.2876C87.0375 38.2223 86.8052 38.1122 86.6547 37.9574C86.5041 37.8011 86.4295 37.6037 86.4309 37.3651C86.4295 37.1634 86.4842 36.9886 86.595 36.8409C86.7072 36.6918 86.8627 36.5767 87.0616 36.4957C87.2619 36.4134 87.4927 36.3722 87.7541 36.3722C88.1376 36.3722 88.4395 36.4538 88.6596 36.6172C88.8812 36.7805 89.0183 37.0014 89.0708 37.2798ZM92.3638 37.2798L91.6607 37.3565C91.6408 37.2855 91.606 37.2188 91.5563 37.1562C91.508 37.0938 91.4426 37.0433 91.3603 37.005C91.2779 36.9666 91.177 36.9474 91.0577 36.9474C90.8972 36.9474 90.7623 36.9822 90.6529 37.0518C90.5449 37.1214 90.4917 37.2116 90.4931 37.3224C90.4917 37.4176 90.5265 37.495 90.5975 37.5547C90.6699 37.6143 90.7892 37.6634 90.9554 37.7017L91.5137 37.821C91.8233 37.8878 92.0534 37.9936 92.204 38.1385C92.356 38.2834 92.4327 38.473 92.4341 38.7074C92.4327 38.9134 92.3723 39.0952 92.253 39.2528C92.1351 39.4091 91.9711 39.5312 91.7608 39.6193C91.5506 39.7074 91.3091 39.7514 91.0364 39.7514C90.6358 39.7514 90.3134 39.6676 90.0691 39.5C89.8248 39.331 89.6792 39.0959 89.6323 38.7947L90.3844 38.7223C90.4185 38.87 90.4909 38.9815 90.6017 39.0568C90.7125 39.1321 90.8567 39.1697 91.0343 39.1697C91.2175 39.1697 91.3645 39.1321 91.4753 39.0568C91.5875 38.9815 91.6436 38.8885 91.6436 38.7777C91.6436 38.6839 91.6074 38.6065 91.535 38.5455C91.464 38.4844 91.3532 38.4375 91.2026 38.4048L90.6444 38.2876C90.3304 38.2223 90.0982 38.1122 89.9476 37.9574C89.7971 37.8011 89.7225 37.6037 89.7239 37.3651C89.7225 37.1634 89.7772 36.9886 89.888 36.8409C90.0002 36.6918 90.1557 36.5767 90.3546 36.4957C90.5549 36.4134 90.7857 36.3722 91.0471 36.3722C91.4306 36.3722 91.7324 36.4538 91.9526 36.6172C92.1742 36.7805 92.3113 37.0014 92.3638 37.2798ZM96.3248 35.3239V39.6875H95.5343V36.093H95.5087L94.4881 36.745V36.0206L95.5726 35.3239H96.3248ZM99.0456 39.7706C98.6948 39.7706 98.3936 39.6818 98.1422 39.5043C97.8922 39.3253 97.6998 39.0675 97.5648 38.7308C97.4313 38.3928 97.3645 37.9858 97.3645 37.5099C97.3659 37.0341 97.4334 36.6293 97.5669 36.2955C97.7019 35.9602 97.8944 35.7045 98.1444 35.5284C98.3958 35.3523 98.6962 35.2642 99.0456 35.2642C99.3951 35.2642 99.6955 35.3523 99.9469 35.5284C100.198 35.7045 100.391 35.9602 100.524 36.2955C100.659 36.6307 100.727 37.0355 100.727 37.5099C100.727 37.9872 100.659 38.3949 100.524 38.733C100.391 39.0696 100.198 39.3267 99.9469 39.5043C99.6969 39.6818 99.3965 39.7706 99.0456 39.7706ZM99.0456 39.1037C99.3184 39.1037 99.5336 38.9695 99.6912 38.701C99.8503 38.4311 99.9299 38.0341 99.9299 37.5099C99.9299 37.1634 99.8936 36.8722 99.8212 36.6364C99.7488 36.4006 99.6465 36.223 99.5144 36.1037C99.3823 35.983 99.226 35.9226 99.0456 35.9226C98.7743 35.9226 98.5598 36.0575 98.4022 36.3274C98.2445 36.5959 98.165 36.9901 98.1635 37.5099C98.1621 37.858 98.1969 38.1506 98.2679 38.3878C98.3404 38.625 98.4426 38.804 98.5748 38.9247C98.7069 39.044 98.8638 39.1037 99.0456 39.1037ZM103.048 39.7706C102.697 39.7706 102.396 39.6818 102.144 39.5043C101.894 39.3253 101.702 39.0675 101.567 38.7308C101.433 38.3928 101.366 37.9858 101.366 37.5099C101.368 37.0341 101.435 36.6293 101.569 36.2955C101.704 35.9602 101.896 35.7045 102.146 35.5284C102.398 35.3523 102.698 35.2642 103.048 35.2642C103.397 35.2642 103.697 35.3523 103.949 35.5284C104.2 35.7045 104.393 35.9602 104.526 36.2955C104.661 36.6307 104.729 37.0355 104.729 37.5099C104.729 37.9872 104.661 38.3949 104.526 38.733C104.393 39.0696 104.2 39.3267 103.949 39.5043C103.699 39.6818 103.398 39.7706 103.048 39.7706ZM103.048 39.1037C103.32 39.1037 103.536 38.9695 103.693 38.701C103.852 38.4311 103.932 38.0341 103.932 37.5099C103.932 37.1634 103.896 36.8722 103.823 36.6364C103.751 36.4006 103.648 36.223 103.516 36.1037C103.384 35.983 103.228 35.9226 103.048 35.9226C102.776 35.9226 102.562 36.0575 102.404 36.3274C102.246 36.5959 102.167 36.9901 102.165 37.5099C102.164 37.858 102.199 38.1506 102.27 38.3878C102.342 38.625 102.445 38.804 102.577 38.9247C102.709 39.044 102.866 39.1037 103.048 39.1037Z" fill="#1A1813"/>
<path d="M79.0185 48.6938L79.7105 44.4757H80.1224L79.4304 48.6938H79.0185ZM77.0989 47.524L77.1648 47.112H80.3119L80.246 47.524H77.0989ZM77.5355 48.6938L78.2276 44.4757H78.6395L77.9474 48.6938H77.5355ZM77.346 46.0575L77.4119 45.6456H80.5591L80.4932 46.0575H77.346ZM81.1698 48.6938V44.4757H83.7155V44.9288H81.6806V46.3541H83.5837V46.8072H81.6806V48.2407H83.7485V48.6938H81.1698ZM84.6939 48.6938L86.5805 44.9617V44.9288H84.4055V44.4757H87.1078V44.9535L85.2294 48.6938H84.6939ZM87.9497 48.6938V44.4757H90.4789V44.9288H88.4605V46.3541H90.2894V46.8072H88.4605V48.6938H87.9497ZM91.3538 48.6938V44.4757H93.8995V44.9288H91.8646V46.3541H93.7677V46.8072H91.8646V48.2407H93.9325V48.6938H91.3538ZM96.0889 44.418C96.2619 44.4194 96.4349 44.4523 96.608 44.5169C96.781 44.5814 96.9389 44.6885 97.0817 44.8382C97.2245 44.9865 97.3391 45.189 97.4256 45.4458C97.5121 45.7025 97.5554 46.0245 97.5554 46.4117C97.5554 46.7866 97.5197 47.1196 97.4483 47.4107C97.3783 47.7004 97.2767 47.9448 97.1435 48.1439C97.0116 48.343 96.851 48.4941 96.6615 48.597C96.4734 48.7 96.2606 48.7515 96.023 48.7515C95.7868 48.7515 95.5761 48.7048 95.3907 48.6115C95.2067 48.5167 95.0557 48.3856 94.9376 48.2181C94.8209 48.0492 94.746 47.8535 94.7131 47.6311H95.2156C95.2609 47.8247 95.3509 47.9846 95.4854 48.111C95.6214 48.2359 95.8006 48.2984 96.023 48.2984C96.3484 48.2984 96.6052 48.1563 96.7933 47.872C96.9828 47.5878 97.0776 47.1862 97.0776 46.6671H97.0446C96.9677 46.7825 96.8764 46.882 96.7707 46.9658C96.6649 47.0496 96.5475 47.1141 96.4185 47.1594C96.2894 47.2047 96.1521 47.2274 96.0065 47.2274C95.7649 47.2274 95.5431 47.1676 95.3413 47.0482C95.1408 46.9273 94.9801 46.7619 94.8593 46.5518C94.7398 46.3403 94.6801 46.0987 94.6801 45.8268C94.6801 45.5687 94.7378 45.3325 94.8531 45.1183C94.9698 44.9027 95.1332 44.7311 95.3433 44.6034C95.5548 44.4757 95.8033 44.4139 96.0889 44.418ZM96.0889 44.8711C95.9159 44.8711 95.7601 44.9144 95.6214 45.0009C95.4841 45.086 95.3749 45.2014 95.2939 45.3469C95.2143 45.4911 95.1744 45.651 95.1744 45.8268C95.1744 46.0026 95.2129 46.1625 95.2898 46.3067C95.368 46.4495 95.4745 46.5635 95.609 46.6486C95.745 46.7324 95.8994 46.7742 96.0724 46.7742C96.2029 46.7742 96.3244 46.7488 96.437 46.698C96.5496 46.6459 96.6478 46.5751 96.7315 46.4859C96.8167 46.3953 96.8833 46.293 96.9313 46.179C96.9794 46.0637 97.0034 45.9435 97.0034 45.8186C97.0034 45.6538 96.9636 45.4993 96.8839 45.3551C96.8057 45.211 96.6972 45.0942 96.5585 45.005C96.4212 44.9157 96.2647 44.8711 96.0889 44.8711ZM99.7659 48.7515C99.5929 48.7488 99.4199 48.7158 99.2469 48.6527C99.0739 48.5895 98.916 48.4831 98.7732 48.3334C98.6304 48.1824 98.5157 47.9785 98.4292 47.7217C98.3427 47.4635 98.2994 47.1395 98.2994 46.7495C98.2994 46.376 98.3345 46.0451 98.4045 45.7568C98.4745 45.467 98.5761 45.2233 98.7093 45.0256C98.8425 44.8265 99.0032 44.6755 99.1913 44.5725C99.3808 44.4695 99.5943 44.418 99.8318 44.418C100.068 44.418 100.278 44.4654 100.462 44.5601C100.647 44.6535 100.799 44.7839 100.915 44.9514C101.032 45.119 101.107 45.3119 101.142 45.5302H100.639C100.593 45.3407 100.502 45.1835 100.367 45.0585C100.233 44.9336 100.054 44.8711 99.8318 44.8711C99.505 44.8711 99.2476 45.0132 99.0595 45.2975C98.8727 45.5817 98.7787 45.9806 98.7773 46.4941H98.8102C98.8871 46.3774 98.9785 46.2779 99.0842 46.1955C99.1913 46.1117 99.3094 46.0472 99.4384 46.0019C99.5675 45.9566 99.7041 45.9339 99.8483 45.9339C100.09 45.9339 100.311 45.9943 100.512 46.1152C100.712 46.2346 100.873 46.4001 100.993 46.6115C101.114 46.8216 101.175 47.0626 101.175 47.3345C101.175 47.5954 101.116 47.8343 101 48.0512C100.883 48.2668 100.719 48.4384 100.507 48.5661C100.297 48.6925 100.05 48.7543 99.7659 48.7515ZM99.7659 48.2984C99.9389 48.2984 100.094 48.2551 100.231 48.1686C100.37 48.0821 100.479 47.9661 100.559 47.8206C100.64 47.675 100.68 47.513 100.68 47.3345C100.68 47.1601 100.641 47.0015 100.563 46.8587C100.486 46.7145 100.38 46.5999 100.244 46.5147C100.109 46.4296 99.9554 46.387 99.7824 46.387C99.652 46.387 99.5304 46.4131 99.4178 46.4653C99.3052 46.5161 99.2064 46.5861 99.1213 46.6754C99.0375 46.7646 98.9716 46.8669 98.9235 46.9823C98.8755 47.0962 98.8514 47.2164 98.8514 47.3427C98.8514 47.5102 98.8906 47.6668 98.9688 47.8123C99.0485 47.9579 99.157 48.0753 99.2943 48.1645C99.4329 48.2538 99.5902 48.2984 99.7659 48.2984Z" fill="#1A1813"/>
<path d="M0 6C0 2.68629 2.68629 0 6 0H53C56.3137 0 59 2.68629 59 6V53C59 56.3137 56.3137 59 53 59H6C2.68629 59 0 56.3137 0 53V6Z" fill="#E7FE96"/>
<path d="M8.4304 35.8239H9.39773L10.6932 38.9858H10.7443L12.0398 35.8239H13.0071V40.1875H12.2486V37.1896H12.2081L11.0021 40.1747H10.4354L9.2294 37.1832H9.18892V40.1875H8.4304V35.8239ZM15.2614 40.2514C14.9418 40.2514 14.6648 40.1811 14.4304 40.0405C14.196 39.8999 14.0142 39.7031 13.8849 39.4503C13.7571 39.1974 13.6932 38.902 13.6932 38.5639C13.6932 38.2259 13.7571 37.9297 13.8849 37.6754C14.0142 37.4212 14.196 37.2237 14.4304 37.0831C14.6648 36.9425 14.9418 36.8722 15.2614 36.8722C15.581 36.8722 15.858 36.9425 16.0923 37.0831C16.3267 37.2237 16.5078 37.4212 16.6357 37.6754C16.7649 37.9297 16.8295 38.2259 16.8295 38.5639C16.8295 38.902 16.7649 39.1974 16.6357 39.4503C16.5078 39.7031 16.3267 39.8999 16.0923 40.0405C15.858 40.1811 15.581 40.2514 15.2614 40.2514ZM15.2656 39.6335C15.4389 39.6335 15.5838 39.5859 15.7003 39.4908C15.8168 39.3942 15.9034 39.2649 15.9602 39.103C16.0185 38.9411 16.0476 38.7607 16.0476 38.5618C16.0476 38.3615 16.0185 38.1804 15.9602 38.0185C15.9034 37.8551 15.8168 37.7251 15.7003 37.6286C15.5838 37.532 15.4389 37.4837 15.2656 37.4837C15.0881 37.4837 14.9403 37.532 14.8224 37.6286C14.706 37.7251 14.6186 37.8551 14.5604 38.0185C14.5036 38.1804 14.4751 38.3615 14.4751 38.5618C14.4751 38.7607 14.5036 38.9411 14.5604 39.103C14.6186 39.2649 14.706 39.3942 14.8224 39.4908C14.9403 39.5859 15.0881 39.6335 15.2656 39.6335ZM20.0708 37.7798L19.3677 37.8565C19.3478 37.7855 19.313 37.7188 19.2633 37.6562C19.215 37.5938 19.1497 37.5433 19.0673 37.505C18.9849 37.4666 18.8841 37.4474 18.7647 37.4474C18.6042 37.4474 18.4693 37.4822 18.3599 37.5518C18.252 37.6214 18.1987 37.7116 18.2001 37.8224C18.1987 37.9176 18.2335 37.995 18.3045 38.0547C18.377 38.1143 18.4963 38.1634 18.6625 38.2017L19.2207 38.321C19.5304 38.3878 19.7605 38.4936 19.911 38.6385C20.063 38.7834 20.1397 38.973 20.1412 39.2074C20.1397 39.4134 20.0794 39.5952 19.96 39.7528C19.8422 39.9091 19.6781 40.0312 19.4679 40.1193C19.2576 40.2074 19.0162 40.2514 18.7434 40.2514C18.3429 40.2514 18.0204 40.1676 17.7761 40C17.5318 39.831 17.3862 39.5959 17.3393 39.2947L18.0914 39.2223C18.1255 39.37 18.198 39.4815 18.3088 39.5568C18.4196 39.6321 18.5637 39.6697 18.7413 39.6697C18.9245 39.6697 19.0716 39.6321 19.1824 39.5568C19.2946 39.4815 19.3507 39.3885 19.3507 39.2777C19.3507 39.1839 19.3145 39.1065 19.242 39.0455C19.171 38.9844 19.0602 38.9375 18.9096 38.9048L18.3514 38.7876C18.0375 38.7223 17.8052 38.6122 17.6547 38.4574C17.5041 38.3011 17.4295 38.1037 17.4309 37.8651C17.4295 37.6634 17.4842 37.4886 17.595 37.3409C17.7072 37.1918 17.8627 37.0767 18.0616 36.9957C18.2619 36.9134 18.4927 36.8722 18.7541 36.8722C19.1376 36.8722 19.4395 36.9538 19.6596 37.1172C19.8812 37.2805 20.0183 37.5014 20.0708 37.7798ZM23.3638 37.7798L22.6607 37.8565C22.6408 37.7855 22.606 37.7188 22.5563 37.6562C22.508 37.5938 22.4426 37.5433 22.3603 37.505C22.2779 37.4666 22.177 37.4474 22.0577 37.4474C21.8972 37.4474 21.7623 37.4822 21.6529 37.5518C21.5449 37.6214 21.4917 37.7116 21.4931 37.8224C21.4917 37.9176 21.5265 37.995 21.5975 38.0547C21.6699 38.1143 21.7892 38.1634 21.9554 38.2017L22.5137 38.321C22.8233 38.3878 23.0534 38.4936 23.204 38.6385C23.356 38.7834 23.4327 38.973 23.4341 39.2074C23.4327 39.4134 23.3723 39.5952 23.253 39.7528C23.1351 39.9091 22.9711 40.0312 22.7608 40.1193C22.5506 40.2074 22.3091 40.2514 22.0364 40.2514C21.6358 40.2514 21.3134 40.1676 21.0691 40C20.8248 39.831 20.6792 39.5959 20.6323 39.2947L21.3844 39.2223C21.4185 39.37 21.4909 39.4815 21.6017 39.5568C21.7125 39.6321 21.8567 39.6697 22.0343 39.6697C22.2175 39.6697 22.3645 39.6321 22.4753 39.5568C22.5875 39.4815 22.6436 39.3885 22.6436 39.2777C22.6436 39.1839 22.6074 39.1065 22.535 39.0455C22.464 38.9844 22.3532 38.9375 22.2026 38.9048L21.6444 38.7876C21.3304 38.7223 21.0982 38.6122 20.9476 38.4574C20.7971 38.3011 20.7225 38.1037 20.7239 37.8651C20.7225 37.6634 20.7772 37.4886 20.888 37.3409C21.0002 37.1918 21.1557 37.0767 21.3546 36.9957C21.5549 36.9134 21.7857 36.8722 22.0471 36.8722C22.4306 36.8722 22.7324 36.9538 22.9526 37.1172C23.1742 37.2805 23.3113 37.5014 23.3638 37.7798ZM27.3248 35.8239V40.1875H26.5343V36.593H26.5087L25.4881 37.245V36.5206L26.5726 35.8239H27.3248ZM30.0456 40.2706C29.6948 40.2706 29.3936 40.1818 29.1422 40.0043C28.8922 39.8253 28.6998 39.5675 28.5648 39.2308C28.4313 38.8928 28.3645 38.4858 28.3645 38.0099C28.3659 37.5341 28.4334 37.1293 28.5669 36.7955C28.7019 36.4602 28.8944 36.2045 29.1444 36.0284C29.3958 35.8523 29.6962 35.7642 30.0456 35.7642C30.3951 35.7642 30.6955 35.8523 30.9469 36.0284C31.1983 36.2045 31.3908 36.4602 31.5243 36.7955C31.6593 37.1307 31.7267 37.5355 31.7267 38.0099C31.7267 38.4872 31.6593 38.8949 31.5243 39.233C31.3908 39.5696 31.1983 39.8267 30.9469 40.0043C30.6969 40.1818 30.3965 40.2706 30.0456 40.2706ZM30.0456 39.6037C30.3184 39.6037 30.5336 39.4695 30.6912 39.201C30.8503 38.9311 30.9299 38.5341 30.9299 38.0099C30.9299 37.6634 30.8936 37.3722 30.8212 37.1364C30.7488 36.9006 30.6465 36.723 30.5144 36.6037C30.3823 36.483 30.226 36.4226 30.0456 36.4226C29.7743 36.4226 29.5598 36.5575 29.4022 36.8274C29.2445 37.0959 29.165 37.4901 29.1635 38.0099C29.1621 38.358 29.1969 38.6506 29.2679 38.8878C29.3404 39.125 29.4426 39.304 29.5748 39.4247C29.7069 39.544 29.8638 39.6037 30.0456 39.6037ZM34.0476 40.2706C33.6967 40.2706 33.3956 40.1818 33.1442 40.0043C32.8942 39.8253 32.7017 39.5675 32.5668 39.2308C32.4332 38.8928 32.3665 38.4858 32.3665 38.0099C32.3679 37.5341 32.4354 37.1293 32.5689 36.7955C32.7038 36.4602 32.8963 36.2045 33.1463 36.0284C33.3977 35.8523 33.6982 35.7642 34.0476 35.7642C34.397 35.7642 34.6974 35.8523 34.9489 36.0284C35.2003 36.2045 35.3928 36.4602 35.5263 36.7955C35.6612 37.1307 35.7287 37.5355 35.7287 38.0099C35.7287 38.4872 35.6612 38.8949 35.5263 39.233C35.3928 39.5696 35.2003 39.8267 34.9489 40.0043C34.6989 40.1818 34.3984 40.2706 34.0476 40.2706ZM34.0476 39.6037C34.3203 39.6037 34.5355 39.4695 34.6932 39.201C34.8523 38.9311 34.9318 38.5341 34.9318 38.0099C34.9318 37.6634 34.8956 37.3722 34.8232 37.1364C34.7507 36.9006 34.6484 36.723 34.5163 36.6037C34.3842 36.483 34.228 36.4226 34.0476 36.4226C33.7763 36.4226 33.5618 36.5575 33.4041 36.8274C33.2464 37.0959 33.1669 37.4901 33.1655 38.0099C33.1641 38.358 33.1989 38.6506 33.2699 38.8878C33.3423 39.125 33.4446 39.304 33.5767 39.4247C33.7088 39.544 33.8658 39.6037 34.0476 39.6037Z" fill="#1A1813"/>
<path d="M10.0185 49.1938L10.7105 44.9757H11.1224L10.4304 49.1938H10.0185ZM8.09886 48.024L8.16477 47.612H11.3119L11.246 48.024H8.09886ZM8.53551 49.1938L9.22756 44.9757H9.63949L8.94744 49.1938H8.53551ZM8.34602 46.5575L8.41193 46.1456H11.5591L11.4932 46.5575H8.34602ZM12.1698 49.1938V44.9757H14.7155V45.4288H12.6806V46.8541H14.5837V47.3072H12.6806V48.7407H14.7485V49.1938H12.1698ZM15.6939 49.1938L17.5805 45.4617V45.4288H15.4055V44.9757H18.1078V45.4535L16.2294 49.1938H15.6939ZM18.9497 49.1938V44.9757H21.4789V45.4288H19.4605V46.8541H21.2894V47.3072H19.4605V49.1938H18.9497ZM22.3538 49.1938V44.9757H24.8995V45.4288H22.8646V46.8541H24.7677V47.3072H22.8646V48.7407H24.9325V49.1938H22.3538ZM27.0889 44.918C27.2619 44.9194 27.4349 44.9523 27.608 45.0169C27.781 45.0814 27.9389 45.1885 28.0817 45.3382C28.2245 45.4865 28.3391 45.689 28.4256 45.9458C28.5121 46.2025 28.5554 46.5245 28.5554 46.9117C28.5554 47.2866 28.5197 47.6196 28.4483 47.9107C28.3783 48.2004 28.2767 48.4448 28.1435 48.6439C28.0116 48.843 27.851 48.9941 27.6615 49.097C27.4734 49.2 27.2606 49.2515 27.023 49.2515C26.7868 49.2515 26.5761 49.2048 26.3907 49.1115C26.2067 49.0167 26.0557 48.8856 25.9376 48.7181C25.8209 48.5492 25.746 48.3535 25.7131 48.1311H26.2156C26.2609 48.3247 26.3509 48.4846 26.4854 48.611C26.6214 48.7359 26.8006 48.7984 27.023 48.7984C27.3484 48.7984 27.6052 48.6563 27.7933 48.372C27.9828 48.0878 28.0776 47.6862 28.0776 47.1671H28.0446C27.9677 47.2825 27.8764 47.382 27.7707 47.4658C27.6649 47.5496 27.5475 47.6141 27.4185 47.6594C27.2894 47.7047 27.1521 47.7274 27.0065 47.7274C26.7649 47.7274 26.5431 47.6676 26.3413 47.5482C26.1408 47.4273 25.9801 47.2619 25.8593 47.0518C25.7398 46.8403 25.6801 46.5987 25.6801 46.3268C25.6801 46.0687 25.7378 45.8325 25.8531 45.6183C25.9698 45.4027 26.1332 45.2311 26.3433 45.1034C26.5548 44.9757 26.8033 44.9139 27.0889 44.918ZM27.0889 45.3711C26.9159 45.3711 26.7601 45.4144 26.6214 45.5009C26.4841 45.586 26.3749 45.7014 26.2939 45.8469C26.2143 45.9911 26.1744 46.151 26.1744 46.3268C26.1744 46.5026 26.2129 46.6625 26.2898 46.8067C26.368 46.9495 26.4745 47.0635 26.609 47.1486C26.745 47.2324 26.8994 47.2742 27.0724 47.2742C27.2029 47.2742 27.3244 47.2488 27.437 47.198C27.5496 47.1459 27.6478 47.0751 27.7315 46.9859C27.8167 46.8953 27.8833 46.793 27.9313 46.679C27.9794 46.5637 28.0034 46.4435 28.0034 46.3186C28.0034 46.1538 27.9636 45.9993 27.8839 45.8551C27.8057 45.711 27.6972 45.5942 27.5585 45.505C27.4212 45.4157 27.2647 45.3711 27.0889 45.3711ZM30.7659 49.2515C30.5929 49.2488 30.4199 49.2158 30.2469 49.1527C30.0739 49.0895 29.916 48.9831 29.7732 48.8334C29.6304 48.6824 29.5157 48.4785 29.4292 48.2217C29.3427 47.9635 29.2994 47.6395 29.2994 47.2495C29.2994 46.876 29.3345 46.5451 29.4045 46.2568C29.4745 45.967 29.5761 45.7233 29.7093 45.5256C29.8425 45.3265 30.0032 45.1755 30.1913 45.0725C30.3808 44.9695 30.5943 44.918 30.8318 44.918C31.068 44.918 31.2781 44.9654 31.4621 45.0601C31.6475 45.1535 31.7985 45.2839 31.9152 45.4514C32.0319 45.619 32.1075 45.8119 32.1418 46.0302H31.6392C31.5925 45.8407 31.5019 45.6835 31.3673 45.5585C31.2328 45.4336 31.0543 45.3711 30.8318 45.3711C30.505 45.3711 30.2476 45.5132 30.0595 45.7975C29.8727 46.0817 29.7787 46.4806 29.7773 46.9941H29.8102C29.8871 46.8774 29.9785 46.7779 30.0842 46.6955C30.1913 46.6117 30.3094 46.5472 30.4384 46.5019C30.5675 46.4566 30.7041 46.4339 30.8483 46.4339C31.09 46.4339 31.3111 46.4943 31.5115 46.6152C31.712 46.7346 31.8727 46.9001 31.9935 47.1115C32.1143 47.3216 32.1747 47.5626 32.1747 47.8345C32.1747 48.0954 32.1164 48.3343 31.9997 48.5512C31.8829 48.7668 31.7189 48.9384 31.5074 49.0661C31.2973 49.1925 31.0502 49.2543 30.7659 49.2515ZM30.7659 48.7984C30.9389 48.7984 31.0941 48.7551 31.2314 48.6686C31.3701 48.5821 31.4793 48.4661 31.5589 48.3206C31.6399 48.175 31.6804 48.013 31.6804 47.8345C31.6804 47.6601 31.6413 47.5015 31.563 47.3587C31.4861 47.2145 31.3797 47.0999 31.2438 47.0147C31.1092 46.9296 30.9554 46.887 30.7824 46.887C30.652 46.887 30.5304 46.9131 30.4178 46.9653C30.3052 47.0161 30.2064 47.0861 30.1213 47.1754C30.0375 47.2646 29.9716 47.3669 29.9235 47.4823C29.8755 47.5962 29.8514 47.7164 29.8514 47.8427C29.8514 48.0102 29.8906 48.1668 29.9688 48.3123C30.0485 48.4579 30.157 48.5753 30.2943 48.6645C30.4329 48.7538 30.5902 48.7984 30.7659 48.7984Z" fill="#1A1813"/>
<path d="M68 6C68 2.68629 70.6863 0 74 0H121C124.314 0 127 2.68629 127 6V53C127 56.3137 124.314 59 121 59H74C70.6863 59 68 56.3137 68 53V6Z" fill="#4D48E2"/>
<path d="M76.2386 36.4865V35.8239H79.7202V36.4865H78.3714V40.1875H77.5874V36.4865H76.2386ZM80.6577 40.1875L79.733 36.9148H80.5192L81.0945 39.2159H81.1243L81.7124 36.9148H82.4901L83.0781 39.2031H83.1101L83.6768 36.9148H84.4652L83.5384 40.1875H82.7351L82.1214 37.9759H82.0767L81.4631 40.1875H80.6577ZM85.0037 40.1875V36.9148H85.775V40.1875H85.0037ZM85.3915 36.4503C85.2694 36.4503 85.1642 36.4098 85.0762 36.3288C84.9881 36.2464 84.9441 36.1477 84.9441 36.0327C84.9441 35.9162 84.9881 35.8175 85.0762 35.7365C85.1642 35.6541 85.2694 35.6129 85.3915 35.6129C85.5151 35.6129 85.6202 35.6541 85.7069 35.7365C85.7949 35.8175 85.839 35.9162 85.839 36.0327C85.839 36.1477 85.7949 36.2464 85.7069 36.3288C85.6202 36.4098 85.5151 36.4503 85.3915 36.4503ZM87.3395 35.8239V40.1875H86.5682V35.8239H87.3395ZM88.1326 40.1875V36.9148H88.9039V40.1875H88.1326ZM88.5204 36.4503C88.3983 36.4503 88.2931 36.4098 88.2051 36.3288C88.117 36.2464 88.073 36.1477 88.073 36.0327C88.073 35.9162 88.117 35.8175 88.2051 35.7365C88.2931 35.6541 88.3983 35.6129 88.5204 35.6129C88.644 35.6129 88.7491 35.6541 88.8358 35.7365C88.9238 35.8175 88.9679 35.9162 88.9679 36.0327C88.9679 36.1477 88.9238 36.2464 88.8358 36.3288C88.7491 36.4098 88.644 36.4503 88.5204 36.4503ZM91.1204 41.483C90.8434 41.483 90.6055 41.4453 90.4066 41.37C90.2077 41.2962 90.0479 41.1967 89.9272 41.0717C89.8065 40.9467 89.7227 40.8082 89.6758 40.6562L90.3704 40.4879C90.4016 40.5518 90.4471 40.6151 90.5067 40.6776C90.5664 40.7415 90.6467 40.794 90.7475 40.8352C90.8498 40.8778 90.9783 40.8991 91.1332 40.8991C91.3519 40.8991 91.533 40.8459 91.6765 40.7393C91.82 40.6342 91.8917 40.4609 91.8917 40.2195V39.5994H91.8533C91.8136 39.679 91.7553 39.7607 91.6786 39.8445C91.6033 39.9283 91.5032 39.9986 91.3782 40.0554C91.2546 40.1122 91.0991 40.1406 90.9116 40.1406C90.6602 40.1406 90.4322 40.0817 90.2276 39.9638C90.0245 39.8445 89.8626 39.6669 89.7418 39.4311C89.6225 39.1939 89.5629 38.897 89.5629 38.5405C89.5629 38.1811 89.6225 37.8778 89.7418 37.6307C89.8626 37.3821 90.0252 37.1939 90.2298 37.0661C90.4343 36.9368 90.6623 36.8722 90.9137 36.8722C91.1055 36.8722 91.2631 36.9048 91.3867 36.9702C91.5117 37.0341 91.6112 37.1115 91.685 37.2024C91.7589 37.2919 91.815 37.3764 91.8533 37.456H91.896V36.9148H92.6566V40.2408C92.6566 40.5206 92.5898 40.7521 92.4563 40.9354C92.3228 41.1186 92.1403 41.2557 91.9087 41.3466C91.6772 41.4375 91.4144 41.483 91.1204 41.483ZM91.1268 39.5355C91.2901 39.5355 91.4293 39.4957 91.5444 39.4162C91.6594 39.3366 91.7468 39.2223 91.8065 39.0732C91.8661 38.924 91.896 38.745 91.896 38.5362C91.896 38.3303 91.8661 38.1499 91.8065 37.995C91.7482 37.8402 91.6616 37.7202 91.5465 37.6349C91.4329 37.5483 91.293 37.505 91.1268 37.505C90.9549 37.505 90.8114 37.5497 90.6964 37.6392C90.5813 37.7287 90.4947 37.8516 90.4364 38.0078C90.3782 38.1626 90.3491 38.3388 90.3491 38.5362C90.3491 38.7365 90.3782 38.9119 90.4364 39.0625C90.4961 39.2116 90.5835 39.3281 90.6985 39.4119C90.815 39.4943 90.9577 39.5355 91.1268 39.5355ZM94.2184 38.2699V40.1875H93.4471V35.8239H94.2013V37.4709H94.2397C94.3164 37.2862 94.435 37.1406 94.5955 37.0341C94.7575 36.9261 94.9634 36.8722 95.2134 36.8722C95.4407 36.8722 95.6388 36.9197 95.8079 37.0149C95.9769 37.1101 96.1076 37.2493 96.1999 37.4325C96.2937 37.6158 96.3406 37.8395 96.3406 38.1037V40.1875H95.5692V38.223C95.5692 38.0028 95.5124 37.8317 95.3988 37.7095C95.2866 37.5859 95.1289 37.5241 94.9258 37.5241C94.7894 37.5241 94.6673 37.554 94.5593 37.6136C94.4528 37.6719 94.369 37.7564 94.3079 37.8672C94.2482 37.978 94.2184 38.1122 94.2184 38.2699ZM98.761 36.9148V37.5114H96.8796V36.9148H98.761ZM97.3441 36.1307H98.1154V39.2031C98.1154 39.3068 98.131 39.3864 98.1623 39.4418C98.195 39.4957 98.2376 39.5327 98.2901 39.5526C98.3427 39.5724 98.4009 39.5824 98.4648 39.5824C98.5131 39.5824 98.5572 39.5788 98.5969 39.5717C98.6381 39.5646 98.6694 39.5582 98.6907 39.5526L98.8207 40.1555C98.7795 40.1697 98.7205 40.1854 98.6438 40.2024C98.5685 40.2195 98.4762 40.2294 98.3668 40.2322C98.1737 40.2379 97.9996 40.2088 97.8448 40.1449C97.69 40.0795 97.5671 39.9787 97.4762 39.8423C97.3867 39.706 97.3427 39.5355 97.3441 39.331V36.1307ZM101.046 40.1875L102.901 36.5142V36.4844H100.747V35.8239H103.72V36.4993L101.866 40.1875H101.046ZM105.926 40.2706C105.576 40.2706 105.275 40.1818 105.023 40.0043C104.773 39.8253 104.581 39.5675 104.446 39.2308C104.312 38.8928 104.245 38.4858 104.245 38.0099C104.247 37.5341 104.314 37.1293 104.448 36.7955C104.583 36.4602 104.775 36.2045 105.025 36.0284C105.277 35.8523 105.577 35.7642 105.926 35.7642C106.276 35.7642 106.576 35.8523 106.828 36.0284C107.079 36.2045 107.272 36.4602 107.405 36.7955C107.54 37.1307 107.608 37.5355 107.608 38.0099C107.608 38.4872 107.54 38.8949 107.405 39.233C107.272 39.5696 107.079 39.8267 106.828 40.0043C106.578 40.1818 106.277 40.2706 105.926 40.2706ZM105.926 39.6037C106.199 39.6037 106.414 39.4695 106.572 39.201C106.731 38.9311 106.811 38.5341 106.811 38.0099C106.811 37.6634 106.775 37.3722 106.702 37.1364C106.63 36.9006 106.527 36.723 106.395 36.6037C106.263 36.483 106.107 36.4226 105.926 36.4226C105.655 36.4226 105.441 36.5575 105.283 36.8274C105.125 37.0959 105.046 37.4901 105.044 38.0099C105.043 38.358 105.078 38.6506 105.149 38.8878C105.221 39.125 105.324 39.304 105.456 39.4247C105.588 39.544 105.745 39.6037 105.926 39.6037ZM109.928 40.2706C109.578 40.2706 109.276 40.1818 109.025 40.0043C108.775 39.8253 108.583 39.5675 108.448 39.2308C108.314 38.8928 108.247 38.4858 108.247 38.0099C108.249 37.5341 108.316 37.1293 108.45 36.7955C108.585 36.4602 108.777 36.2045 109.027 36.0284C109.279 35.8523 109.579 35.7642 109.928 35.7642C110.278 35.7642 110.578 35.8523 110.83 36.0284C111.081 36.2045 111.274 36.4602 111.407 36.7955C111.542 37.1307 111.61 37.5355 111.61 38.0099C111.61 38.4872 111.542 38.8949 111.407 39.233C111.274 39.5696 111.081 39.8267 110.83 40.0043C110.58 40.1818 110.279 40.2706 109.928 40.2706ZM109.928 39.6037C110.201 39.6037 110.416 39.4695 110.574 39.201C110.733 38.9311 110.813 38.5341 110.813 38.0099C110.813 37.6634 110.776 37.3722 110.704 37.1364C110.632 36.9006 110.529 36.723 110.397 36.6037C110.265 36.483 110.109 36.4226 109.928 36.4226C109.657 36.4226 109.443 36.5575 109.285 36.8274C109.127 37.0959 109.048 37.4901 109.046 38.0099C109.045 38.358 109.08 38.6506 109.151 38.8878C109.223 39.125 109.325 39.304 109.458 39.4247C109.59 39.544 109.747 39.6037 109.928 39.6037Z" fill="white"/>
<path d="M78.0185 49.1938L78.7105 44.9757H79.1224L78.4304 49.1938H78.0185ZM76.0989 48.024L76.1648 47.612H79.3119L79.246 48.024H76.0989ZM76.5355 49.1938L77.2276 44.9757H77.6395L76.9474 49.1938H76.5355ZM76.346 46.5575L76.4119 46.1456H79.5591L79.4932 46.5575H76.346ZM79.9968 48.3288V47.9086L81.8505 44.9757H82.1553V45.6265H81.9493L80.5488 47.8427V47.8757H83.0451V48.3288H79.9968ZM81.9823 49.1938V48.2011V48.0054V44.9757H82.4684V49.1938H81.9823ZM85.1928 49.1938H83.8911V44.9757H85.2504C85.6596 44.9757 86.0098 45.0601 86.3009 45.229C86.592 45.3965 86.8151 45.6375 86.9703 45.9519C87.1254 46.265 87.203 46.6399 87.203 47.0765C87.203 47.5159 87.1247 47.8942 86.9682 48.2114C86.8117 48.5272 86.5837 48.7702 86.2844 48.9405C85.9851 49.1094 85.6212 49.1938 85.1928 49.1938ZM84.4019 48.7407H85.1598C85.5086 48.7407 85.7976 48.6734 86.0269 48.5389C86.2562 48.4043 86.4272 48.2128 86.5398 47.9642C86.6524 47.7157 86.7087 47.4198 86.7087 47.0765C86.7087 46.736 86.6531 46.4428 86.5419 46.197C86.4306 45.9499 86.2645 45.7604 86.0434 45.6286C85.8223 45.4954 85.547 45.4288 85.2175 45.4288H84.4019V48.7407ZM87.8868 48.3288V47.9086L89.7405 44.9757H90.0453V45.6265H89.8394L88.4388 47.8427V47.8757H90.9351V48.3288H87.8868ZM89.8723 49.1938V48.2011V48.0054V44.9757H90.3584V49.1938H89.8723ZM93.0581 49.2515C92.7752 49.2515 92.5253 49.2014 92.3084 49.1012C92.0928 48.9996 91.9246 48.8602 91.8038 48.6831C91.6829 48.5045 91.6232 48.3013 91.6246 48.0734C91.6232 47.8949 91.6582 47.7301 91.7296 47.5791C91.801 47.4267 91.8985 47.2996 92.0221 47.198C92.147 47.0951 92.2864 47.0298 92.4402 47.0024V46.9777C92.2384 46.9255 92.0777 46.8122 91.9582 46.6378C91.8388 46.4621 91.7797 46.2623 91.7811 46.0384C91.7797 45.8242 91.834 45.6327 91.9438 45.4638C92.0537 45.2949 92.2047 45.1617 92.3969 45.0642C92.5906 44.9667 92.8109 44.918 93.0581 44.918C93.3025 44.918 93.5208 44.9667 93.7131 45.0642C93.9053 45.1617 94.0563 45.2949 94.1662 45.4638C94.2774 45.6327 94.3337 45.8242 94.3351 46.0384C94.3337 46.2623 94.2726 46.4621 94.1518 46.6378C94.0323 46.8122 93.8737 46.9255 93.676 46.9777V47.0024C93.8284 47.0298 93.9657 47.0951 94.0879 47.198C94.2101 47.2996 94.3076 47.4267 94.3804 47.5791C94.4532 47.7301 94.4902 47.8949 94.4916 48.0734C94.4902 48.3013 94.4285 48.5045 94.3063 48.6831C94.1854 48.8602 94.0172 48.9996 93.8016 49.1012C93.5874 49.2014 93.3396 49.2515 93.0581 49.2515ZM93.0581 48.7984C93.249 48.7984 93.4137 48.7675 93.5524 48.7057C93.6911 48.6439 93.7982 48.5567 93.8737 48.4441C93.9492 48.3315 93.9877 48.1997 93.9891 48.0487C93.9877 47.8894 93.9465 47.7487 93.8655 47.6264C93.7845 47.5042 93.6739 47.4081 93.5339 47.3381C93.3952 47.2681 93.2366 47.2331 93.0581 47.2331C92.8782 47.2331 92.7176 47.2681 92.5761 47.3381C92.4361 47.4081 92.3255 47.5042 92.2445 47.6264C92.1649 47.7487 92.1258 47.8894 92.1271 48.0487C92.1258 48.1997 92.1621 48.3315 92.2363 48.4441C92.3118 48.5567 92.4196 48.6439 92.5597 48.7057C92.6997 48.7675 92.8659 48.7984 93.0581 48.7984ZM93.0581 46.7964C93.2091 46.7964 93.343 46.7662 93.4597 46.7058C93.5778 46.6454 93.6705 46.5609 93.7378 46.4524C93.8051 46.344 93.8394 46.217 93.8408 46.0714C93.8394 45.9286 93.8058 45.8043 93.7398 45.6986C93.6739 45.5915 93.5826 45.5091 93.4659 45.4514C93.3492 45.3924 93.2133 45.3629 93.0581 45.3629C92.9002 45.3629 92.7622 45.3924 92.6441 45.4514C92.526 45.5091 92.4347 45.5915 92.3702 45.6986C92.3056 45.8043 92.2741 45.9286 92.2754 46.0714C92.2741 46.217 92.3063 46.344 92.3722 46.4524C92.4395 46.5609 92.5322 46.6454 92.6503 46.7058C92.7684 46.7662 92.9043 46.7964 93.0581 46.7964ZM95.3551 49.1938V44.9757H97.9009V45.4288H95.8659V46.8541H97.7691V47.3072H95.8659V48.7407H97.9338V49.1938H95.3551ZM98.7474 49.1938V48.8231L100.14 47.299C100.303 47.1205 100.438 46.9653 100.543 46.8335C100.649 46.7003 100.727 46.5753 100.778 46.4586C100.83 46.3405 100.856 46.217 100.856 46.0879C100.856 45.9396 100.821 45.8112 100.749 45.7027C100.679 45.5942 100.583 45.5105 100.461 45.4514C100.339 45.3924 100.202 45.3629 100.049 45.3629C99.8871 45.3629 99.7456 45.3965 99.6248 45.4638C99.5053 45.5297 99.4127 45.6224 99.3468 45.7419C99.2822 45.8613 99.2499 46.0014 99.2499 46.162H98.7639C98.7639 45.9149 98.8209 45.6979 98.9348 45.5112C99.0488 45.3244 99.2039 45.1789 99.4003 45.0745C99.598 44.9702 99.8198 44.918 100.066 44.918C100.313 44.918 100.532 44.9702 100.723 45.0745C100.913 45.1789 101.063 45.3196 101.172 45.4968C101.28 45.6739 101.334 45.8709 101.334 46.0879C101.334 46.243 101.306 46.3948 101.25 46.5431C101.195 46.69 101.099 46.8541 100.962 47.0353C100.826 47.2152 100.637 47.4349 100.395 47.6944L99.4477 48.7078V48.7407H101.408V49.1938H98.7474Z" fill="white"/>
</g>
<g clip-path="url(#clip2_283_1007)">
<path d="M0 75C0 71.6863 2.68629 69 6 69H53C56.3137 69 59 71.6863 59 75V122C59 125.314 56.3137 128 53 128H6C2.68629 128 0 125.314 0 122V75Z" fill="#BA81EB"/>
<path d="M8.4304 109.188V104.824H9.22088V108.525H11.1428V109.188H8.4304ZM12.7365 109.254C12.5291 109.254 12.3423 109.217 12.1761 109.143C12.0114 109.067 11.8807 108.957 11.7841 108.81C11.6889 108.664 11.6413 108.484 11.6413 108.269C11.6413 108.085 11.6754 107.932 11.7436 107.811C11.8118 107.69 11.9048 107.594 12.0227 107.521C12.1406 107.449 12.2734 107.394 12.4212 107.357C12.5703 107.319 12.7244 107.291 12.8835 107.274C13.0753 107.254 13.2308 107.237 13.3501 107.221C13.4695 107.204 13.5561 107.178 13.6101 107.144C13.6655 107.109 13.6932 107.054 13.6932 106.98V106.967C13.6932 106.807 13.6456 106.683 13.5504 106.594C13.4553 106.506 13.3182 106.462 13.1392 106.462C12.9503 106.462 12.8004 106.504 12.6896 106.586C12.5803 106.668 12.5064 106.766 12.468 106.878L11.7479 106.776C11.8047 106.577 11.8984 106.411 12.0291 106.277C12.1598 106.142 12.3196 106.041 12.5085 105.974C12.6974 105.906 12.9063 105.872 13.1349 105.872C13.2926 105.872 13.4496 105.891 13.6058 105.928C13.7621 105.964 13.9048 106.026 14.0341 106.111C14.1634 106.195 14.267 106.309 14.3452 106.454C14.4247 106.599 14.4645 106.78 14.4645 106.997V109.188H13.723V108.738H13.6974C13.6506 108.829 13.5845 108.914 13.4993 108.994C13.4155 109.072 13.3097 109.135 13.1818 109.183C13.0554 109.23 12.907 109.254 12.7365 109.254ZM12.9368 108.687C13.0916 108.687 13.2259 108.656 13.3395 108.595C13.4531 108.533 13.5405 108.45 13.6016 108.348C13.6641 108.246 13.6953 108.134 13.6953 108.013V107.628C13.6712 107.648 13.63 107.666 13.5717 107.683C13.5149 107.7 13.451 107.715 13.38 107.728C13.3089 107.741 13.2386 107.752 13.169 107.762C13.0994 107.772 13.0391 107.781 12.9879 107.788C12.8729 107.803 12.7699 107.829 12.679 107.864C12.5881 107.9 12.5163 107.95 12.4638 108.013C12.4112 108.076 12.3849 108.157 12.3849 108.256C12.3849 108.398 12.4368 108.506 12.5405 108.578C12.6442 108.651 12.7763 108.687 12.9368 108.687ZM18.0462 105.915L16.8807 109.188H16.0284L14.8629 105.915H15.6854L16.4375 108.346H16.4716L17.2259 105.915H18.0462ZM19.9174 109.251C19.5893 109.251 19.3059 109.183 19.0673 109.047C18.8301 108.909 18.6475 108.714 18.5197 108.463C18.3919 108.21 18.3279 107.913 18.3279 107.57C18.3279 107.234 18.3919 106.938 18.5197 106.684C18.649 106.428 18.8294 106.229 19.0609 106.087C19.2924 105.944 19.5645 105.872 19.877 105.872C20.0787 105.872 20.269 105.905 20.448 105.97C20.6284 106.034 20.7875 106.134 20.9252 106.268C21.0645 106.403 21.1738 106.575 21.2534 106.784C21.3329 106.991 21.3727 107.239 21.3727 107.526V107.762H18.6902V107.242H20.6333C20.6319 107.094 20.6 106.963 20.5375 106.848C20.475 106.732 20.3876 106.64 20.2754 106.573C20.1646 106.506 20.0353 106.473 19.8876 106.473C19.7299 106.473 19.5914 106.511 19.4721 106.588C19.3528 106.663 19.2598 106.763 19.193 106.886C19.1277 107.009 19.0943 107.143 19.0929 107.289V107.743C19.0929 107.933 19.1277 108.097 19.1973 108.233C19.2669 108.368 19.3642 108.472 19.4892 108.544C19.6142 108.615 19.7605 108.651 19.9281 108.651C20.0403 108.651 20.1419 108.635 20.2328 108.604C20.3237 108.571 20.4025 108.523 20.4693 108.461C20.536 108.398 20.5865 108.321 20.6206 108.229L21.3407 108.31C21.2953 108.5 21.2086 108.666 21.0808 108.808C20.9544 108.949 20.7924 109.058 20.595 109.136C20.3975 109.213 20.1717 109.251 19.9174 109.251ZM22.7965 107.27V109.188H22.0252V105.915H22.7624V106.471H22.8008C22.8761 106.288 22.9961 106.142 23.1609 106.034C23.3271 105.926 23.5323 105.872 23.7766 105.872C24.0025 105.872 24.1992 105.92 24.3668 106.017C24.5359 106.114 24.6665 106.254 24.7589 106.437C24.8526 106.62 24.8988 106.842 24.8974 107.104V109.188H24.1261V107.223C24.1261 107.004 24.0692 106.833 23.9556 106.71C23.8434 106.586 23.6879 106.524 23.489 106.524C23.354 106.524 23.234 106.554 23.1289 106.614C23.0252 106.672 22.9435 106.756 22.8839 106.867C22.8256 106.978 22.7965 107.112 22.7965 107.27ZM26.896 109.245C26.6388 109.245 26.4087 109.179 26.2056 109.047C26.0025 108.915 25.842 108.723 25.7241 108.472C25.6062 108.22 25.5472 107.915 25.5472 107.555C25.5472 107.192 25.6069 106.885 25.7262 106.635C25.8469 106.384 26.0096 106.194 26.2141 106.066C26.4187 105.937 26.6467 105.872 26.8981 105.872C27.0898 105.872 27.2475 105.905 27.3711 105.97C27.4947 106.034 27.5927 106.112 27.6651 106.202C27.7376 106.292 27.7937 106.376 27.8335 106.456H27.8654V104.824H28.6388V109.188H27.8803V108.672H27.8335C27.7937 108.751 27.7362 108.836 27.6609 108.925C27.5856 109.013 27.4862 109.089 27.3626 109.151C27.239 109.214 27.0835 109.245 26.896 109.245ZM27.1112 108.612C27.2745 108.612 27.4137 108.568 27.5288 108.48C27.6438 108.391 27.7312 108.266 27.7908 108.107C27.8505 107.948 27.8803 107.763 27.8803 107.551C27.8803 107.339 27.8505 107.156 27.7908 106.999C27.7326 106.843 27.646 106.722 27.5309 106.635C27.4173 106.548 27.2773 106.505 27.1112 106.505C26.9393 106.505 26.7958 106.55 26.6808 106.639C26.5657 106.729 26.479 106.852 26.4208 107.01C26.3626 107.168 26.3335 107.348 26.3335 107.551C26.3335 107.756 26.3626 107.938 26.4208 108.099C26.4805 108.258 26.5678 108.384 26.6829 108.476C26.7994 108.567 26.9421 108.612 27.1112 108.612ZM30.9096 109.251C30.5815 109.251 30.2981 109.183 30.0595 109.047C29.8223 108.909 29.6397 108.714 29.5119 108.463C29.3841 108.21 29.3201 107.913 29.3201 107.57C29.3201 107.234 29.3841 106.938 29.5119 106.684C29.6412 106.428 29.8216 106.229 30.0531 106.087C30.2846 105.944 30.5566 105.872 30.8691 105.872C31.0708 105.872 31.2612 105.905 31.4402 105.97C31.6206 106.034 31.7797 106.134 31.9174 106.268C32.0566 106.403 32.166 106.575 32.2456 106.784C32.3251 106.991 32.3649 107.239 32.3649 107.526V107.762H29.6824V107.242H31.6255C31.6241 107.094 31.5922 106.963 31.5297 106.848C31.4672 106.732 31.3798 106.64 31.2676 106.573C31.1568 106.506 31.0275 106.473 30.8798 106.473C30.7221 106.473 30.5836 106.511 30.4643 106.588C30.345 106.663 30.252 106.763 30.1852 106.886C30.1199 107.009 30.0865 107.143 30.085 107.289V107.743C30.085 107.933 30.1199 108.097 30.1895 108.233C30.2591 108.368 30.3564 108.472 30.4814 108.544C30.6064 108.615 30.7527 108.651 30.9203 108.651C31.0325 108.651 31.1341 108.635 31.225 108.604C31.3159 108.571 31.3947 108.523 31.4615 108.461C31.5282 108.398 31.5787 108.321 31.6127 108.229L32.3329 108.31C32.2875 108.5 32.2008 108.666 32.073 108.808C31.9466 108.949 31.7846 109.058 31.5872 109.136C31.3897 109.213 31.1639 109.251 30.9096 109.251ZM33.0174 109.188V105.915H33.7653V106.46H33.7994C33.859 106.271 33.9613 106.126 34.1062 106.023C34.2525 105.92 34.4194 105.868 34.6069 105.868C34.6495 105.868 34.6971 105.87 34.7496 105.874C34.8036 105.877 34.8484 105.882 34.8839 105.889V106.599C34.8512 106.587 34.7994 106.577 34.7283 106.569C34.6587 106.559 34.5913 106.554 34.5259 106.554C34.3853 106.554 34.2589 106.585 34.1467 106.646C34.0359 106.705 33.9485 106.788 33.8846 106.895C33.8207 107.001 33.7887 107.124 33.7887 107.263V109.188H33.0174ZM38.6509 104.824V109.188H37.8604V105.593H37.8349L36.8143 106.245V105.521L37.8988 104.824H38.6509ZM41.3718 109.271C41.021 109.271 40.7198 109.182 40.4684 109.004C40.2184 108.825 40.0259 108.567 39.891 108.231C39.7575 107.893 39.6907 107.486 39.6907 107.01C39.6921 106.534 39.7596 106.129 39.8931 105.795C40.0281 105.46 40.2205 105.205 40.4705 105.028C40.7219 104.852 41.0224 104.764 41.3718 104.764C41.7212 104.764 42.0217 104.852 42.2731 105.028C42.5245 105.205 42.717 105.46 42.8505 105.795C42.9854 106.131 43.0529 106.536 43.0529 107.01C43.0529 107.487 42.9854 107.895 42.8505 108.233C42.717 108.57 42.5245 108.827 42.2731 109.004C42.0231 109.182 41.7227 109.271 41.3718 109.271ZM41.3718 108.604C41.6445 108.604 41.8597 108.469 42.0174 108.201C42.1765 107.931 42.256 107.534 42.256 107.01C42.256 106.663 42.2198 106.372 42.1474 106.136C42.0749 105.901 41.9727 105.723 41.8406 105.604C41.7085 105.483 41.5522 105.423 41.3718 105.423C41.1005 105.423 40.886 105.558 40.7283 105.827C40.5707 106.096 40.4911 106.49 40.4897 107.01C40.4883 107.358 40.5231 107.651 40.5941 107.888C40.6665 108.125 40.7688 108.304 40.9009 108.425C41.033 108.544 41.19 108.604 41.3718 108.604ZM45.3738 109.271C45.0229 109.271 44.7218 109.182 44.4703 109.004C44.2203 108.825 44.0279 108.567 43.8929 108.231C43.7594 107.893 43.6926 107.486 43.6926 107.01C43.6941 106.534 43.7615 106.129 43.8951 105.795C44.03 105.46 44.2225 105.205 44.4725 105.028C44.7239 104.852 45.0243 104.764 45.3738 104.764C45.7232 104.764 46.0236 104.852 46.275 105.028C46.5265 105.205 46.7189 105.46 46.8525 105.795C46.9874 106.131 47.0549 106.536 47.0549 107.01C47.0549 107.487 46.9874 107.895 46.8525 108.233C46.7189 108.57 46.5265 108.827 46.275 109.004C46.025 109.182 45.7246 109.271 45.3738 109.271ZM45.3738 108.604C45.6465 108.604 45.8617 108.469 46.0194 108.201C46.1784 107.931 46.258 107.534 46.258 107.01C46.258 106.663 46.2218 106.372 46.1493 106.136C46.0769 105.901 45.9746 105.723 45.8425 105.604C45.7104 105.483 45.5542 105.423 45.3738 105.423C45.1025 105.423 44.888 105.558 44.7303 105.827C44.5726 106.096 44.4931 106.49 44.4917 107.01C44.4902 107.358 44.525 107.651 44.5961 107.888C44.6685 108.125 44.7708 108.304 44.9029 108.425C45.035 108.544 45.1919 108.604 45.3738 108.604Z" fill="white"/>
<path d="M10.0185 118.194L10.7105 113.976H11.1224L10.4304 118.194H10.0185ZM8.09886 117.024L8.16477 116.612H11.3119L11.246 117.024H8.09886ZM8.53551 118.194L9.22756 113.976H9.63949L8.94744 118.194H8.53551ZM8.34602 115.557L8.41193 115.146H11.5591L11.4932 115.557H8.34602ZM12.1698 118.194V113.976H13.6445C13.9383 113.976 14.1807 114.026 14.3716 114.128C14.5624 114.228 14.7045 114.364 14.7979 114.534C14.8913 114.703 14.938 114.89 14.938 115.096C14.938 115.277 14.9057 115.427 14.8412 115.545C14.778 115.663 14.6942 115.757 14.5899 115.825C14.4869 115.894 14.375 115.945 14.2542 115.978V116.019C14.3832 116.027 14.513 116.072 14.6434 116.155C14.7739 116.237 14.883 116.355 14.9709 116.509C15.0588 116.663 15.1027 116.851 15.1027 117.073C15.1027 117.285 15.0547 117.475 14.9586 117.644C14.8624 117.813 14.7107 117.947 14.5034 118.046C14.296 118.144 14.0262 118.194 13.6939 118.194H12.1698ZM12.6806 117.741H13.6939C14.0276 117.741 14.2645 117.676 14.4045 117.547C14.5459 117.417 14.6167 117.259 14.6167 117.073C14.6167 116.931 14.5803 116.799 14.5075 116.678C14.4347 116.556 14.331 116.458 14.1965 116.385C14.0619 116.311 13.9026 116.274 13.7186 116.274H12.6806V117.741ZM12.6806 115.829H13.628C13.7818 115.829 13.9205 115.799 14.0441 115.739C14.169 115.678 14.2679 115.593 14.3407 115.483C14.4148 115.373 14.4519 115.244 14.4519 115.096C14.4519 114.911 14.3873 114.754 14.2583 114.624C14.1292 114.494 13.9246 114.429 13.6445 114.429H12.6806V115.829ZM16.1151 118.194H15.5795L17.1284 113.976H17.6557L19.2045 118.194H18.669L17.4085 114.643H17.3756L16.1151 118.194ZM16.3128 116.546H18.4713V116.999H16.3128V116.546ZM21.1386 118.252C20.8557 118.252 20.6058 118.201 20.3888 118.101C20.1733 118 20.0051 117.86 19.8842 117.683C19.7634 117.505 19.7037 117.301 19.705 117.073C19.7037 116.895 19.7387 116.73 19.8101 116.579C19.8815 116.427 19.979 116.3 20.1026 116.198C20.2275 116.095 20.3669 116.03 20.5207 116.002V115.978C20.3188 115.925 20.1582 115.812 20.0387 115.638C19.9192 115.462 19.8602 115.262 19.8616 115.038C19.8602 114.824 19.9144 114.633 20.0243 114.464C20.1341 114.295 20.2852 114.162 20.4774 114.064C20.671 113.967 20.8914 113.918 21.1386 113.918C21.383 113.918 21.6013 113.967 21.7935 114.064C21.9858 114.162 22.1368 114.295 22.2467 114.464C22.3579 114.633 22.4142 114.824 22.4156 115.038C22.4142 115.262 22.3531 115.462 22.2322 115.638C22.1128 115.812 21.9542 115.925 21.7565 115.978V116.002C21.9089 116.03 22.0462 116.095 22.1684 116.198C22.2906 116.3 22.3881 116.427 22.4609 116.579C22.5336 116.73 22.5707 116.895 22.5721 117.073C22.5707 117.301 22.5089 117.505 22.3867 117.683C22.2659 117.86 22.0977 118 21.8821 118.101C21.6679 118.201 21.4201 118.252 21.1386 118.252ZM21.1386 117.798C21.3294 117.798 21.4942 117.767 21.6329 117.706C21.7716 117.644 21.8787 117.557 21.9542 117.444C22.0297 117.332 22.0682 117.2 22.0695 117.049C22.0682 116.889 22.027 116.749 21.946 116.626C21.8649 116.504 21.7544 116.408 21.6143 116.338C21.4757 116.268 21.3171 116.233 21.1386 116.233C20.9587 116.233 20.798 116.268 20.6566 116.338C20.5165 116.408 20.406 116.504 20.325 116.626C20.2454 116.749 20.2062 116.889 20.2076 117.049C20.2062 117.2 20.2426 117.332 20.3168 117.444C20.3923 117.557 20.5001 117.644 20.6401 117.706C20.7802 117.767 20.9463 117.798 21.1386 117.798ZM21.1386 115.796C21.2896 115.796 21.4235 115.766 21.5402 115.706C21.6583 115.645 21.751 115.561 21.8183 115.452C21.8855 115.344 21.9199 115.217 21.9212 115.071C21.9199 114.929 21.8862 114.804 21.8203 114.699C21.7544 114.592 21.6631 114.509 21.5464 114.451C21.4297 114.392 21.2937 114.363 21.1386 114.363C20.9807 114.363 20.8427 114.392 20.7246 114.451C20.6065 114.509 20.5152 114.592 20.4506 114.699C20.3861 114.804 20.3545 114.929 20.3559 115.071C20.3545 115.217 20.3868 115.344 20.4527 115.452C20.52 115.561 20.6127 115.645 20.7308 115.706C20.8488 115.766 20.9848 115.796 21.1386 115.796ZM24.8444 113.976V118.194H24.3336V114.511H24.3089L23.2791 115.195V114.676L24.3336 113.976H24.8444ZM26.1317 118.194V113.976H28.6774V114.429H26.6425V115.854H28.5456V116.307H26.6425V117.741H28.7104V118.194H26.1317ZM29.5981 118.194V113.976H31.0728C31.3667 113.976 31.609 114.026 31.7999 114.128C31.9907 114.228 32.1329 114.364 32.2262 114.534C32.3196 114.703 32.3663 114.89 32.3663 115.096C32.3663 115.277 32.334 115.427 32.2695 115.545C32.2063 115.663 32.1226 115.757 32.0182 115.825C31.9152 115.894 31.8033 115.945 31.6825 115.978V116.019C31.8115 116.027 31.9413 116.072 32.0718 116.155C32.2022 116.237 32.3114 116.355 32.3992 116.509C32.4871 116.663 32.5311 116.851 32.5311 117.073C32.5311 117.285 32.483 117.475 32.3869 117.644C32.2908 117.813 32.139 117.947 31.9317 118.046C31.7244 118.144 31.4545 118.194 31.1222 118.194H29.5981ZM30.1089 117.741H31.1222C31.4559 117.741 31.6928 117.676 31.8328 117.547C31.9743 117.417 32.045 117.259 32.045 117.073C32.045 116.931 32.0086 116.799 31.9358 116.678C31.863 116.556 31.7594 116.458 31.6248 116.385C31.4902 116.311 31.331 116.274 31.147 116.274H30.1089V117.741ZM30.1089 115.829H31.0563C31.2101 115.829 31.3488 115.799 31.4724 115.739C31.5973 115.678 31.6962 115.593 31.769 115.483C31.8431 115.373 31.8802 115.244 31.8802 115.096C31.8802 114.911 31.8157 114.754 31.6866 114.624C31.5575 114.494 31.3529 114.429 31.0728 114.429H30.1089V115.829Z" fill="white"/>
<path d="M68 75C68 71.6863 70.6863 69 74 69H121C124.314 69 127 71.6863 127 75V122C127 125.314 124.314 128 121 128H74C70.6863 128 68 125.314 68 122V75Z" fill="#F7F0DF"/>
<path d="M76.4304 109.188V104.824H78.0668C78.402 104.824 78.6832 104.886 78.9105 105.011C79.1392 105.136 79.3118 105.308 79.4283 105.527C79.5462 105.744 79.6051 105.991 79.6051 106.268C79.6051 106.548 79.5462 106.797 79.4283 107.014C79.3104 107.232 79.1364 107.403 78.9062 107.528C78.6761 107.651 78.3928 107.713 78.0561 107.713H76.9716V107.063H77.9496C78.1456 107.063 78.3061 107.029 78.4311 106.961C78.5561 106.893 78.6484 106.799 78.7081 106.68C78.7692 106.56 78.7997 106.423 78.7997 106.268C78.7997 106.114 78.7692 105.977 78.7081 105.859C78.6484 105.741 78.5554 105.65 78.429 105.585C78.304 105.518 78.1428 105.484 77.9453 105.484H77.2209V109.188H76.4304ZM82.3436 107.811V105.915H83.1149V109.188H82.367V108.606H82.3329C82.2591 108.789 82.1376 108.939 81.9686 109.055C81.801 109.172 81.5943 109.23 81.3485 109.23C81.1341 109.23 80.9444 109.183 80.7797 109.087C80.6163 108.991 80.4885 108.851 80.3961 108.668C80.3038 108.483 80.2576 108.26 80.2576 107.999V105.915H81.0289V107.879C81.0289 108.087 81.0858 108.251 81.1994 108.374C81.313 108.496 81.4622 108.557 81.6468 108.557C81.7605 108.557 81.8706 108.529 81.9771 108.474C82.0836 108.418 82.171 108.336 82.2392 108.227C82.3088 108.116 82.3436 107.977 82.3436 107.811ZM83.908 109.188V105.915H84.6452V106.471H84.6836C84.7518 106.283 84.8647 106.137 85.0224 106.032C85.18 105.925 85.3683 105.872 85.587 105.872C85.8086 105.872 85.9954 105.926 86.1474 106.034C86.3008 106.141 86.4087 106.286 86.4712 106.471H86.5053C86.5778 106.289 86.6999 106.144 86.8718 106.036C87.0451 105.927 87.2504 105.872 87.4876 105.872C87.7887 105.872 88.0344 105.967 88.2248 106.158C88.4151 106.348 88.5103 106.626 88.5103 106.991V109.188H87.7369V107.11C87.7369 106.907 87.6829 106.759 87.5749 106.665C87.467 106.57 87.3349 106.522 87.1786 106.522C86.9925 106.522 86.8469 106.58 86.7418 106.697C86.6381 106.812 86.5863 106.962 86.5863 107.146V109.188H85.8299V107.078C85.8299 106.909 85.7788 106.774 85.6765 106.673C85.5756 106.572 85.4435 106.522 85.2802 106.522C85.1694 106.522 85.0685 106.55 84.9776 106.607C84.8867 106.663 84.8143 106.741 84.7603 106.844C84.7063 106.945 84.6793 107.062 84.6793 107.197V109.188H83.908ZM89.2928 109.188V105.915H90.0641V109.188H89.2928ZM89.6806 105.45C89.5584 105.45 89.4533 105.41 89.3652 105.329C89.2772 105.246 89.2331 105.148 89.2331 105.033C89.2331 104.916 89.2772 104.817 89.3652 104.737C89.4533 104.654 89.5584 104.613 89.6806 104.613C89.8042 104.613 89.9093 104.654 89.9959 104.737C90.084 104.817 90.128 104.916 90.128 105.033C90.128 105.148 90.084 105.246 89.9959 105.329C89.9093 105.41 89.8042 105.45 89.6806 105.45ZM92.2848 109.251C91.9581 109.251 91.6776 109.18 91.4432 109.036C91.2102 108.893 91.0305 108.695 90.9041 108.442C90.7791 108.187 90.7166 107.895 90.7166 107.564C90.7166 107.232 90.7805 106.938 90.9084 106.684C91.0362 106.428 91.2166 106.229 91.4496 106.087C91.6839 105.944 91.9609 105.872 92.2805 105.872C92.5462 105.872 92.7813 105.921 92.9858 106.019C93.1918 106.116 93.3558 106.253 93.478 106.43C93.6001 106.607 93.6697 106.812 93.6868 107.048H92.9496C92.9197 106.891 92.8487 106.759 92.7365 106.654C92.6257 106.548 92.4773 106.494 92.2912 106.494C92.1335 106.494 91.995 106.537 91.8757 106.622C91.7564 106.706 91.6634 106.827 91.5966 106.984C91.5313 107.142 91.4986 107.331 91.4986 107.551C91.4986 107.774 91.5313 107.966 91.5966 108.126C91.6619 108.286 91.7536 108.408 91.8714 108.495C91.9908 108.58 92.1307 108.623 92.2912 108.623C92.4048 108.623 92.5064 108.602 92.5959 108.559C92.6868 108.515 92.7628 108.452 92.8239 108.369C92.8849 108.287 92.9268 108.187 92.9496 108.069H93.6868C93.6683 108.3 93.6001 108.506 93.4822 108.685C93.3643 108.862 93.2038 109.001 93.0007 109.102C92.7976 109.202 92.5589 109.251 92.2848 109.251ZM95.769 109.251C95.4409 109.251 95.1575 109.183 94.9189 109.047C94.6816 108.909 94.4991 108.714 94.3713 108.463C94.2434 108.21 94.1795 107.913 94.1795 107.57C94.1795 107.234 94.2434 106.938 94.3713 106.684C94.5005 106.428 94.6809 106.229 94.9125 106.087C95.144 105.944 95.416 105.872 95.7285 105.872C95.9302 105.872 96.1206 105.905 96.2995 105.97C96.4799 106.034 96.639 106.134 96.7768 106.268C96.916 106.403 97.0254 106.575 97.1049 106.784C97.1845 106.991 97.2243 107.239 97.2243 107.526V107.762H94.5417V107.242H96.4849C96.4835 107.094 96.4515 106.963 96.389 106.848C96.3265 106.732 96.2392 106.64 96.127 106.573C96.0162 106.506 95.8869 106.473 95.7392 106.473C95.5815 106.473 95.443 106.511 95.3237 106.588C95.2044 106.663 95.1113 106.763 95.0446 106.886C94.9792 107.009 94.9458 107.143 94.9444 107.289V107.743C94.9444 107.933 94.9792 108.097 95.0488 108.233C95.1184 108.368 95.2157 108.472 95.3407 108.544C95.4657 108.615 95.612 108.651 95.7797 108.651C95.8919 108.651 95.9934 108.635 96.0843 108.604C96.1752 108.571 96.2541 108.523 96.3208 108.461C96.3876 108.398 96.438 108.321 96.4721 108.229L97.1923 108.31C97.1468 108.5 97.0602 108.666 96.9324 108.808C96.8059 108.949 96.644 109.058 96.4466 109.136C96.2491 109.213 96.0233 109.251 95.769 109.251ZM100.923 109.247C100.616 109.247 100.343 109.195 100.104 109.089C99.8672 108.984 99.6797 108.838 99.5419 108.651C99.4041 108.463 99.331 108.246 99.3224 108.001H100.124C100.131 108.119 100.17 108.222 100.241 108.31C100.312 108.396 100.406 108.464 100.524 108.512C100.642 108.56 100.774 108.585 100.92 108.585C101.077 108.585 101.215 108.558 101.336 108.504C101.457 108.448 101.551 108.371 101.619 108.273C101.688 108.175 101.721 108.062 101.719 107.935C101.721 107.803 101.687 107.686 101.617 107.585C101.548 107.484 101.447 107.406 101.315 107.349C101.184 107.292 101.026 107.263 100.842 107.263H100.456V106.654H100.842C100.994 106.654 101.126 106.628 101.24 106.575C101.355 106.523 101.445 106.449 101.511 106.354C101.576 106.257 101.608 106.146 101.607 106.019C101.608 105.896 101.58 105.788 101.523 105.697C101.468 105.605 101.389 105.533 101.287 105.482C101.186 105.431 101.067 105.406 100.931 105.406C100.798 105.406 100.674 105.43 100.56 105.478C100.447 105.526 100.355 105.595 100.286 105.685C100.216 105.773 100.179 105.878 100.175 106H99.4141C99.4197 105.756 99.4901 105.541 99.625 105.357C99.7614 105.17 99.9432 105.026 100.17 104.922C100.398 104.817 100.653 104.764 100.935 104.764C101.227 104.764 101.479 104.819 101.694 104.928C101.91 105.036 102.077 105.182 102.195 105.365C102.313 105.548 102.371 105.751 102.371 105.972C102.373 106.218 102.3 106.424 102.154 106.59C102.009 106.756 101.819 106.865 101.583 106.916V106.95C101.89 106.993 102.125 107.107 102.288 107.291C102.453 107.474 102.535 107.702 102.533 107.975C102.533 108.219 102.464 108.438 102.325 108.631C102.187 108.823 101.996 108.974 101.754 109.083C101.512 109.192 101.235 109.247 100.923 109.247ZM104.878 109.271C104.527 109.271 104.226 109.182 103.974 109.004C103.724 108.825 103.532 108.567 103.397 108.231C103.263 107.893 103.197 107.486 103.197 107.01C103.198 106.534 103.265 106.129 103.399 105.795C103.534 105.46 103.726 105.205 103.976 105.028C104.228 104.852 104.528 104.764 104.878 104.764C105.227 104.764 105.528 104.852 105.779 105.028C106.03 105.205 106.223 105.46 106.356 105.795C106.491 106.131 106.559 106.536 106.559 107.01C106.559 107.487 106.491 107.895 106.356 108.233C106.223 108.57 106.03 108.827 105.779 109.004C105.529 109.182 105.229 109.271 104.878 109.271ZM104.878 108.604C105.15 108.604 105.366 108.469 105.523 108.201C105.682 107.931 105.762 107.534 105.762 107.01C105.762 106.663 105.726 106.372 105.653 106.136C105.581 105.901 105.479 105.723 105.346 105.604C105.214 105.483 105.058 105.423 104.878 105.423C104.606 105.423 104.392 105.558 104.234 105.827C104.077 106.096 103.997 106.49 103.996 107.01C103.994 107.358 104.029 107.651 104.1 107.888C104.172 108.125 104.275 108.304 104.407 108.425C104.539 108.544 104.696 108.604 104.878 108.604ZM108.88 109.271C108.529 109.271 108.228 109.182 107.976 109.004C107.726 108.825 107.534 108.567 107.399 108.231C107.265 107.893 107.199 107.486 107.199 107.01C107.2 106.534 107.267 106.129 107.401 105.795C107.536 105.46 107.728 105.205 107.978 105.028C108.23 104.852 108.53 104.764 108.88 104.764C109.229 104.764 109.529 104.852 109.781 105.028C110.032 105.205 110.225 105.46 110.358 105.795C110.493 106.131 110.561 106.536 110.561 107.01C110.561 107.487 110.493 107.895 110.358 108.233C110.225 108.57 110.032 108.827 109.781 109.004C109.531 109.182 109.23 109.271 108.88 109.271ZM108.88 108.604C109.152 108.604 109.368 108.469 109.525 108.201C109.684 107.931 109.764 107.534 109.764 107.01C109.764 106.663 109.728 106.372 109.655 106.136C109.583 105.901 109.48 105.723 109.348 105.604C109.216 105.483 109.06 105.423 108.88 105.423C108.608 105.423 108.394 105.558 108.236 105.827C108.078 106.096 107.999 106.49 107.998 107.01C107.996 107.358 108.031 107.651 108.102 107.888C108.174 108.125 108.277 108.304 108.409 108.425C108.541 108.544 108.698 108.604 108.88 108.604Z" fill="#1A1813"/>
<path d="M78.0185 118.194L78.7105 113.976H79.1224L78.4304 118.194H78.0185ZM76.0989 117.024L76.1648 116.612H79.3119L79.246 117.024H76.0989ZM76.5355 118.194L77.2276 113.976H77.6395L76.9474 118.194H76.5355ZM76.346 115.557L76.4119 115.146H79.5591L79.4932 115.557H76.346ZM80.1698 118.194V113.976H82.699V114.429H80.6806V115.854H82.5096V116.307H80.6806V118.194H80.1698ZM83.6316 118.194L85.5182 114.462V114.429H83.3432V113.976H86.0455V114.454L84.1671 118.194H83.6316ZM86.8874 118.194V113.976H89.4166V114.429H87.3982V115.854H89.2271V116.307H87.3982V118.194H86.8874ZM91.5932 118.252C91.2828 118.252 91.0185 118.167 90.8002 117.998C90.5819 117.828 90.415 117.581 90.2997 117.259C90.1844 116.935 90.1267 116.543 90.1267 116.085C90.1267 115.629 90.1844 115.24 90.2997 114.917C90.4164 114.593 90.5839 114.346 90.8023 114.175C91.022 114.004 91.2856 113.918 91.5932 113.918C91.9007 113.918 92.1637 114.004 92.382 114.175C92.6017 114.346 92.7692 114.593 92.8846 114.917C93.0013 115.24 93.0596 115.629 93.0596 116.085C93.0596 116.543 93.002 116.935 92.8866 117.259C92.7713 117.581 92.6045 117.828 92.3861 117.998C92.1678 118.167 91.9035 118.252 91.5932 118.252ZM91.5932 117.798C91.9007 117.798 92.1397 117.65 92.3099 117.354C92.4802 117.057 92.5653 116.634 92.5653 116.085C92.5653 115.72 92.5262 115.409 92.4479 115.152C92.371 114.895 92.2598 114.699 92.1143 114.565C91.9701 114.43 91.7964 114.363 91.5932 114.363C91.2883 114.363 91.0501 114.513 90.8785 114.814C90.7068 115.113 90.621 115.537 90.621 116.085C90.621 116.45 90.6595 116.76 90.7363 117.016C90.8132 117.271 90.9238 117.465 91.068 117.599C91.2135 117.732 91.3886 117.798 91.5932 117.798ZM95.2182 118.194H93.9165V113.976H95.2758C95.685 113.976 96.0352 114.06 96.3263 114.229C96.6174 114.397 96.8405 114.638 96.9957 114.952C97.1508 115.265 97.2284 115.64 97.2284 116.077C97.2284 116.516 97.1501 116.894 96.9936 117.211C96.8371 117.527 96.6091 117.77 96.3098 117.941C96.0104 118.109 95.6466 118.194 95.2182 118.194ZM94.4273 117.741H95.1852C95.534 117.741 95.823 117.673 96.0523 117.539C96.2816 117.404 96.4526 117.213 96.5652 116.964C96.6778 116.716 96.7341 116.42 96.7341 116.077C96.7341 115.736 96.6785 115.443 96.5672 115.197C96.456 114.95 96.2899 114.76 96.0688 114.629C95.8477 114.495 95.5724 114.429 95.2429 114.429H94.4273V117.741ZM98.0852 118.194V113.976H100.614V114.429H98.596V115.854H100.425V116.307H98.596V118.194H98.0852Z" fill="#1A1813"/>
<path d="M137 75C137 71.6863 139.686 69 143 69H190C193.314 69 196 71.6863 196 75V122C196 125.314 193.314 128 190 128H143C139.686 128 137 125.314 137 122V75Z" fill="#EEE0BE"/>
<path d="M145.43 109.188V104.824H147.067C147.402 104.824 147.683 104.886 147.911 105.011C148.139 105.136 148.312 105.308 148.428 105.527C148.546 105.744 148.605 105.991 148.605 106.268C148.605 106.548 148.546 106.797 148.428 107.014C148.31 107.232 148.136 107.403 147.906 107.528C147.676 107.651 147.393 107.713 147.056 107.713H145.972V107.063H146.95C147.146 107.063 147.306 107.029 147.431 106.961C147.556 106.893 147.648 106.799 147.708 106.68C147.769 106.56 147.8 106.423 147.8 106.268C147.8 106.114 147.769 105.977 147.708 105.859C147.648 105.741 147.555 105.65 147.429 105.585C147.304 105.518 147.143 105.484 146.945 105.484H146.221V109.188H145.43ZM151.344 107.811V105.915H152.115V109.188H151.367V108.606H151.333C151.259 108.789 151.138 108.939 150.969 109.055C150.801 109.172 150.594 109.23 150.349 109.23C150.134 109.23 149.944 109.183 149.78 109.087C149.616 108.991 149.488 108.851 149.396 108.668C149.304 108.483 149.258 108.26 149.258 107.999V105.915H150.029V107.879C150.029 108.087 150.086 108.251 150.199 108.374C150.313 108.496 150.462 108.557 150.647 108.557C150.76 108.557 150.871 108.529 150.977 108.474C151.084 108.418 151.171 108.336 151.239 108.227C151.309 108.116 151.344 107.977 151.344 107.811ZM152.908 109.188V105.915H153.645V106.471H153.684C153.752 106.283 153.865 106.137 154.022 106.032C154.18 105.925 154.368 105.872 154.587 105.872C154.809 105.872 154.995 105.926 155.147 106.034C155.301 106.141 155.409 106.286 155.471 106.471H155.505C155.578 106.289 155.7 106.144 155.872 106.036C156.045 105.927 156.25 105.872 156.488 105.872C156.789 105.872 157.034 105.967 157.225 106.158C157.415 106.348 157.51 106.626 157.51 106.991V109.188H156.737V107.11C156.737 106.907 156.683 106.759 156.575 106.665C156.467 106.57 156.335 106.522 156.179 106.522C155.993 106.522 155.847 106.58 155.742 106.697C155.638 106.812 155.586 106.962 155.586 107.146V109.188H154.83V107.078C154.83 106.909 154.779 106.774 154.676 106.673C154.576 106.572 154.444 106.522 154.28 106.522C154.169 106.522 154.069 106.55 153.978 106.607C153.887 106.663 153.814 106.741 153.76 106.844C153.706 106.945 153.679 107.062 153.679 107.197V109.188H152.908ZM158.293 109.188V105.915H159.064V109.188H158.293ZM158.681 105.45C158.558 105.45 158.453 105.41 158.365 105.329C158.277 105.246 158.233 105.148 158.233 105.033C158.233 104.916 158.277 104.817 158.365 104.737C158.453 104.654 158.558 104.613 158.681 104.613C158.804 104.613 158.909 104.654 158.996 104.737C159.084 104.817 159.128 104.916 159.128 105.033C159.128 105.148 159.084 105.246 158.996 105.329C158.909 105.41 158.804 105.45 158.681 105.45ZM161.285 109.251C160.958 109.251 160.678 109.18 160.443 109.036C160.21 108.893 160.031 108.695 159.904 108.442C159.779 108.187 159.717 107.895 159.717 107.564C159.717 107.232 159.781 106.938 159.908 106.684C160.036 106.428 160.217 106.229 160.45 106.087C160.684 105.944 160.961 105.872 161.281 105.872C161.546 105.872 161.781 105.921 161.986 106.019C162.192 106.116 162.356 106.253 162.478 106.43C162.6 106.607 162.67 106.812 162.687 107.048H161.95C161.92 106.891 161.849 106.759 161.737 106.654C161.626 106.548 161.477 106.494 161.291 106.494C161.134 106.494 160.995 106.537 160.876 106.622C160.756 106.706 160.663 106.827 160.597 106.984C160.531 107.142 160.499 107.331 160.499 107.551C160.499 107.774 160.531 107.966 160.597 108.126C160.662 108.286 160.754 108.408 160.871 108.495C160.991 108.58 161.131 108.623 161.291 108.623C161.405 108.623 161.506 108.602 161.596 108.559C161.687 108.515 161.763 108.452 161.824 108.369C161.885 108.287 161.927 108.187 161.95 108.069H162.687C162.668 108.3 162.6 108.506 162.482 108.685C162.364 108.862 162.204 109.001 162.001 109.102C161.798 109.202 161.559 109.251 161.285 109.251ZM164.769 109.251C164.441 109.251 164.157 109.183 163.919 109.047C163.682 108.909 163.499 108.714 163.371 108.463C163.243 108.21 163.18 107.913 163.18 107.57C163.18 107.234 163.243 106.938 163.371 106.684C163.501 106.428 163.681 106.229 163.912 106.087C164.144 105.944 164.416 105.872 164.729 105.872C164.93 105.872 165.121 105.905 165.3 105.97C165.48 106.034 165.639 106.134 165.777 106.268C165.916 106.403 166.025 106.575 166.105 106.784C166.184 106.991 166.224 107.239 166.224 107.526V107.762H163.542V107.242H165.485C165.483 107.094 165.452 106.963 165.389 106.848C165.327 106.732 165.239 106.64 165.127 106.573C165.016 106.506 164.887 106.473 164.739 106.473C164.581 106.473 164.443 106.511 164.324 106.588C164.204 106.663 164.111 106.763 164.045 106.886C163.979 107.009 163.946 107.143 163.944 107.289V107.743C163.944 107.933 163.979 108.097 164.049 108.233C164.118 108.368 164.216 108.472 164.341 108.544C164.466 108.615 164.612 108.651 164.78 108.651C164.892 108.651 164.993 108.635 165.084 108.604C165.175 108.571 165.254 108.523 165.321 108.461C165.388 108.398 165.438 108.321 165.472 108.229L166.192 108.31C166.147 108.5 166.06 108.666 165.932 108.808C165.806 108.949 165.644 109.058 165.447 109.136C165.249 109.213 165.023 109.251 164.769 109.251ZM168.278 108.378V107.749L170.129 104.824H170.653V105.719H170.334L169.087 107.694V107.728H171.672V108.378H168.278ZM170.359 109.188V108.186L170.368 107.905V104.824H171.114V109.188H170.359ZM173.966 109.271C173.615 109.271 173.314 109.182 173.062 109.004C172.812 108.825 172.62 108.567 172.485 108.231C172.351 107.893 172.284 107.486 172.284 107.01C172.286 106.534 172.353 106.129 172.487 105.795C172.622 105.46 172.814 105.205 173.064 105.028C173.316 104.852 173.616 104.764 173.966 104.764C174.315 104.764 174.615 104.852 174.867 105.028C175.118 105.205 175.311 105.46 175.444 105.795C175.579 106.131 175.647 106.536 175.647 107.01C175.647 107.487 175.579 107.895 175.444 108.233C175.311 108.57 175.118 108.827 174.867 109.004C174.617 109.182 174.316 109.271 173.966 109.271ZM173.966 108.604C174.238 108.604 174.453 108.469 174.611 108.201C174.77 107.931 174.85 107.534 174.85 107.01C174.85 106.663 174.814 106.372 174.741 106.136C174.669 105.901 174.566 105.723 174.434 105.604C174.302 105.483 174.146 105.423 173.966 105.423C173.694 105.423 173.48 105.558 173.322 105.827C173.164 106.096 173.085 106.49 173.083 107.01C173.082 107.358 173.117 107.651 173.188 107.888C173.26 108.125 173.363 108.304 173.495 108.425C173.627 108.544 173.784 108.604 173.966 108.604ZM177.968 109.271C177.617 109.271 177.316 109.182 177.064 109.004C176.814 108.825 176.622 108.567 176.487 108.231C176.353 107.893 176.286 107.486 176.286 107.01C176.288 106.534 176.355 106.129 176.489 105.795C176.624 105.46 176.816 105.205 177.066 105.028C177.318 104.852 177.618 104.764 177.968 104.764C178.317 104.764 178.617 104.852 178.869 105.028C179.12 105.205 179.313 105.46 179.446 105.795C179.581 106.131 179.649 106.536 179.649 107.01C179.649 107.487 179.581 107.895 179.446 108.233C179.313 108.57 179.12 108.827 178.869 109.004C178.619 109.182 178.318 109.271 177.968 109.271ZM177.968 108.604C178.24 108.604 178.455 108.469 178.613 108.201C178.772 107.931 178.852 107.534 178.852 107.01C178.852 106.663 178.816 106.372 178.743 106.136C178.671 105.901 178.568 105.723 178.436 105.604C178.304 105.483 178.148 105.423 177.968 105.423C177.696 105.423 177.482 105.558 177.324 105.827C177.166 106.096 177.087 106.49 177.085 107.01C177.084 107.358 177.119 107.651 177.19 107.888C177.262 108.125 177.365 108.304 177.497 108.425C177.629 108.544 177.786 108.604 177.968 108.604Z" fill="#1A1813"/>
<path d="M147.018 118.194L147.711 113.976H148.122L147.43 118.194H147.018ZM145.099 117.024L145.165 116.612H148.312L148.246 117.024H145.099ZM145.536 118.194L146.228 113.976H146.639L145.947 118.194H145.536ZM145.346 115.557L145.412 115.146H148.559L148.493 115.557H145.346ZM149.17 118.194V113.976H151.716V114.429H149.681V115.854H151.584V116.307H149.681V117.741H151.748V118.194H149.17ZM152.636 118.194V113.976H155.182V114.429H153.147V115.854H155.05V116.307H153.147V117.741H155.215V118.194H152.636ZM156.103 118.194V113.976H158.648V114.429H156.613V115.854H158.517V116.307H156.613V117.741H158.681V118.194H156.103ZM160.871 118.252C160.56 118.252 160.296 118.167 160.078 117.998C159.859 117.828 159.693 117.581 159.577 117.259C159.462 116.935 159.404 116.543 159.404 116.085C159.404 115.629 159.462 115.24 159.577 114.917C159.694 114.593 159.861 114.346 160.08 114.175C160.299 114.004 160.563 113.918 160.871 113.918C161.178 113.918 161.441 114.004 161.66 114.175C161.879 114.346 162.047 114.593 162.162 114.917C162.279 115.24 162.337 115.629 162.337 116.085C162.337 116.543 162.28 116.935 162.164 117.259C162.049 117.581 161.882 117.828 161.664 117.998C161.445 118.167 161.181 118.252 160.871 118.252ZM160.871 117.798C161.178 117.798 161.417 117.65 161.587 117.354C161.758 117.057 161.843 116.634 161.843 116.085C161.843 115.72 161.804 115.409 161.725 115.152C161.649 114.895 161.537 114.699 161.392 114.565C161.248 114.43 161.074 114.363 160.871 114.363C160.566 114.363 160.328 114.513 160.156 114.814C159.984 115.113 159.899 115.537 159.899 116.085C159.899 116.45 159.937 116.76 160.014 117.016C160.091 117.271 160.201 117.465 160.345 117.599C160.491 117.732 160.666 117.798 160.871 117.798ZM163.194 118.194V113.976H164.669C164.963 113.976 165.205 114.026 165.396 114.128C165.587 114.228 165.729 114.364 165.822 114.534C165.915 114.703 165.962 114.89 165.962 115.096C165.962 115.277 165.93 115.427 165.865 115.545C165.802 115.663 165.718 115.757 165.614 115.825C165.511 115.894 165.399 115.945 165.278 115.978V116.019C165.407 116.027 165.537 116.072 165.668 116.155C165.798 116.237 165.907 116.355 165.995 116.509C166.083 116.663 166.127 116.851 166.127 117.073C166.127 117.285 166.079 117.475 165.983 117.644C165.887 117.813 165.735 117.947 165.528 118.046C165.32 118.144 165.05 118.194 164.718 118.194H163.194ZM163.705 117.741H164.718C165.052 117.741 165.289 117.676 165.429 117.547C165.57 117.417 165.641 117.259 165.641 117.073C165.641 116.931 165.604 116.799 165.532 116.678C165.459 116.556 165.355 116.458 165.221 116.385C165.086 116.311 164.927 116.274 164.743 116.274H163.705V117.741ZM163.705 115.829H164.652C164.806 115.829 164.945 115.799 165.068 115.739C165.193 115.678 165.292 115.593 165.365 115.483C165.439 115.373 165.476 115.244 165.476 115.096C165.476 114.911 165.412 114.754 165.282 114.624C165.153 114.494 164.949 114.429 164.669 114.429H163.705V115.829ZM166.966 118.194V113.976H169.512V114.429H167.477V115.854H169.38V116.307H167.477V117.741H169.545V118.194H166.966Z" fill="#1A1813"/>
</g>
</g>
<defs>
<clipPath id="clip0_283_1007">
<rect width="196" height="128" fill="white"/>
</clipPath>
<clipPath id="clip1_283_1007">
<rect width="196" height="59" fill="white"/>
</clipPath>
<clipPath id="clip2_283_1007">
<rect width="196" height="59" fill="white" transform="translate(0 69)"/>
</clipPath>
</defs>
</svg>
