<svg width="164" height="104" viewBox="0 0 164 104" fill="none" xmlns="http://www.w3.org/2000/svg">
<path d="M35.5241 74.2375C34.1078 75.1355 32.5861 75.8032 30.9592 76.2376C29.0308 76.7537 27.3072 76.8586 25.7856 76.5554C24.2669 76.2493 22.9823 75.535 21.9376 74.4095C21.0802 73.4853 20.4043 72.2899 19.9039 70.8291L34.257 67.5782C34.1722 67.0505 34.061 66.5286 33.9234 66.0155C33.4143 64.1232 32.5891 62.5663 31.4478 61.3505C30.3066 60.1347 28.8815 59.327 27.1756 58.9276C25.4696 58.5282 23.5441 58.6156 21.3992 59.1871C19.2279 59.7673 17.4576 60.7528 16.0881 62.1464C14.7186 63.543 13.8291 65.2078 13.4194 67.1409C13.0068 69.0769 13.1004 71.1528 13.6974 73.3716C14.2709 75.5058 15.2307 77.2872 16.5739 78.7101C17.917 80.1329 19.5323 81.0863 21.4197 81.5674C23.3071 82.0484 25.3672 81.9901 27.5911 81.3982C29.6804 80.8385 31.4274 79.9521 32.829 78.7363C34.2336 77.5234 35.3397 76.258 36.1503 74.9402L35.5241 74.2375ZM19.0114 63.6072C19.3245 62.0736 20.1877 61.1172 21.6011 60.7411C22.874 60.4029 24.0152 60.7994 25.0189 61.9365C26.0226 63.0765 26.801 64.6714 27.3541 66.7269L19.503 69.4646C18.8797 67.0214 18.7129 65.065 19.0114 63.6072Z" fill="white"/>
<path d="M56.335 78.1557L55.9136 77.316C55.2113 77.5668 54.4797 77.7505 53.7219 77.8613C52.964 77.972 52.2178 78.0304 51.4892 78.0304C49.8885 78.0304 48.4547 77.6601 47.1905 76.9166C45.9264 76.176 44.9432 75.0681 44.2409 73.5986C43.5386 72.1292 43.1875 70.3594 43.1875 68.2864C43.1875 66.6915 43.3777 65.3212 43.7552 64.1724C44.1356 63.0266 44.6476 62.1578 45.2943 61.5688C45.941 60.9798 46.658 60.6883 47.4422 60.6883C48.3113 60.6883 49.0077 61.0032 49.5286 61.6329C50.0494 62.2627 50.5879 63.3619 51.1497 64.9276L52.288 68.1173H53.1717L56.332 60.6008C55.2932 60.181 54.0789 59.8311 52.686 59.5512C51.296 59.2713 49.7861 59.1313 48.1562 59.1313C46.02 59.1313 44.0683 59.6066 42.2979 60.56C40.5275 61.5105 39.1317 62.8837 38.1046 64.6739C37.0804 66.4641 36.5654 68.5925 36.5654 71.0562C36.5654 73.2954 37.0073 75.2547 37.8939 76.9341C38.7806 78.6135 40.0213 79.908 41.6219 80.8177C43.2226 81.7274 45.0778 82.1822 47.1847 82.1822C48.7297 82.1822 50.1285 81.9431 51.378 81.4679C52.6275 80.9926 53.6399 80.4591 54.4124 79.873C55.185 79.2841 55.8229 78.7126 56.3291 78.1528L56.335 78.1557Z" fill="white"/>
<path d="M65.7927 79.2493C65.6376 78.9694 65.5616 78.4795 65.5616 77.7798V49.8599L55.7002 51.1602V52.0845L57.4267 52.6734C57.9036 52.8688 58.2197 53.1137 58.3748 53.4082C58.5298 53.7026 58.6059 54.2537 58.6059 55.0672V77.7798C58.6059 78.4795 58.5298 78.9694 58.3748 79.2493C58.2197 79.5292 57.9036 79.7828 57.4267 80.0044L55.7002 80.675V81.5555H68.4673V80.675L66.7408 80.0044C66.2638 79.7799 65.9478 79.5292 65.7927 79.2493Z" fill="white"/>
<path d="M82.6274 80.6753L80.857 80.0047C80.3801 79.7802 80.064 79.5294 79.9089 79.2495C79.7538 78.9696 79.6778 78.4798 79.6778 77.7801V59.2222L69.8164 60.5225V61.4468L71.5429 62.0357C72.0199 62.2048 72.3359 62.441 72.491 62.7501C72.6461 63.0591 72.7221 63.6189 72.7221 64.4295V77.7801C72.7221 78.4798 72.6431 78.9696 72.491 79.2495C72.3359 79.5294 72.0199 79.7831 71.5429 80.0047L69.8164 80.6753V81.5558H82.6274V80.6753Z" fill="white"/>
<path d="M76.137 56.4084C77.287 56.4084 78.2088 56.0877 78.8964 55.4433C79.5841 54.799 79.9294 53.9738 79.9294 52.965C79.9294 51.9562 79.5782 51.1748 78.8759 50.5305C78.1737 49.8861 77.246 49.5654 76.096 49.5654C74.946 49.5654 74.0155 49.8861 73.3161 50.5305C72.6138 51.1748 72.2627 51.9854 72.2627 52.965C72.2627 53.9447 72.6138 54.799 73.3161 55.4433C74.0184 56.0877 74.9607 56.4084 76.1399 56.4084H76.137Z" fill="white"/>
<path d="M106.014 64.0942C105.338 62.441 104.413 61.2164 103.231 60.4205C102.052 59.6216 100.676 59.2222 99.102 59.2222C97.6711 59.2222 96.3835 59.5021 95.2482 60.0619C94.1508 60.6013 93.0476 61.3127 91.9386 62.1873V59.2222L82.1621 60.5254V61.4468L83.9325 62.0357C84.4094 62.2048 84.7255 62.441 84.8806 62.7501C85.0357 63.0591 85.1117 63.616 85.1117 64.4295V87.1013C85.1117 87.801 85.0357 88.2967 84.8806 88.5912C84.7255 88.8856 84.4094 89.1305 83.9325 89.3259L82.1621 90.0402V90.8799H94.9321V90.0402L93.1618 89.3259C92.6819 89.1305 92.3658 88.8856 92.2137 88.5912C92.0586 88.2967 91.9825 87.801 91.9825 87.1013V80.9756C92.5912 81.2788 93.27 81.5412 94.025 81.7686C95.0492 82.0777 96.1524 82.2293 97.3316 82.2293C99.2132 82.2293 100.887 81.7745 102.347 80.8648C103.807 79.958 104.952 78.6052 105.783 76.815C106.611 75.0248 107.023 72.841 107.023 70.2636C107.023 67.6862 106.687 65.7444 106.014 64.0942ZM99.2717 76.5001C98.8211 77.8005 98.1978 78.7101 97.396 79.2291C96.5942 79.7481 95.6315 80.0047 94.5108 80.0047C94.0045 80.0047 93.4427 79.9434 92.8253 79.8152C92.5151 79.7539 92.2342 79.6898 91.9825 79.6227V63.4615C92.3571 63.3011 92.758 63.1612 93.1823 63.0445C93.7851 62.8754 94.382 62.7909 94.9731 62.7909C95.9856 62.7909 96.8634 63.0445 97.6067 63.546C98.35 64.0504 98.9264 64.9193 99.3332 66.1497C99.7399 67.383 99.9447 69.0624 99.9447 71.1879C99.9447 73.427 99.7194 75.1968 99.2717 76.5001Z" fill="white"/>
<path d="M122.617 69.0038L118.108 66.82C116.788 66.1495 115.866 65.5255 115.348 64.9511C114.828 64.3768 114.57 63.7557 114.57 63.0822C114.57 62.4087 114.851 61.8169 115.413 61.3824C115.975 60.948 116.803 60.7322 117.9 60.7322C118.632 60.7322 119.275 60.8576 119.837 61.1113C120.399 61.362 120.946 61.7469 121.482 62.2659C122.014 62.7848 122.635 63.4613 123.337 64.301L125.192 66.4002H126.12V60.3532C123.562 59.5689 121.034 59.1782 118.535 59.1782C116.343 59.1782 114.517 59.4785 113.057 60.0821C111.597 60.6856 110.514 61.4816 109.812 62.4758C109.11 63.47 108.759 64.5546 108.759 65.7296C108.759 67.1845 109.139 68.4032 109.897 69.3829C110.655 70.3625 111.834 71.2576 113.438 72.0711L117.947 74.2549C119.237 74.9255 120.139 75.5436 120.645 76.1034C121.151 76.6632 121.403 77.3075 121.403 78.0335C121.403 78.7595 121.087 79.3776 120.455 79.882C119.823 80.3864 118.93 80.6372 117.78 80.6372C116.63 80.6372 115.638 80.3514 114.81 79.777C113.982 79.2027 113.005 78.2872 111.881 77.0276L109.522 74.3394H108.639V80.6372C110.154 81.0862 111.664 81.4564 113.168 81.7509C114.67 82.0454 116.153 82.1912 117.613 82.1912C119.72 82.1912 121.502 81.8821 122.965 81.2669C124.426 80.6517 125.52 79.8324 126.252 78.812C126.983 77.7915 127.346 76.6632 127.346 75.4328C127.346 73.8933 126.96 72.6396 126.187 71.6745C125.415 70.7095 124.227 69.8202 122.626 69.0097L122.617 69.0038Z" fill="white"/>
<path d="M150.208 74.4767C148.792 75.3776 147.27 76.0453 145.64 76.4797C143.715 76.9928 141.991 77.1007 140.47 76.7946C138.948 76.4914 137.666 75.777 136.622 74.6487C135.764 73.7244 135.088 72.529 134.585 71.0712L148.941 67.8174C148.856 67.2897 148.745 66.7707 148.608 66.2546C148.098 64.3624 147.273 62.8084 146.132 61.5926C144.991 60.3768 143.566 59.5691 141.86 59.1697C140.151 58.7702 138.225 58.8548 136.083 59.4292C133.912 60.0094 132.142 60.9949 130.772 62.3885C129.403 63.7851 128.51 65.4499 128.101 67.383C127.691 69.3189 127.785 71.3949 128.382 73.6107C128.955 75.7479 129.912 77.5264 131.255 78.9521C132.598 80.375 134.214 81.3284 136.104 81.8094C137.991 82.2876 140.048 82.2322 142.275 81.6374C144.362 81.0805 146.109 80.1942 147.513 78.9784C148.918 77.7655 150.024 76.4972 150.832 75.1793L150.208 74.4767ZM133.693 63.8463C134.009 62.3156 134.872 61.3593 136.282 60.9832C137.558 60.6421 138.697 61.0415 139.703 62.1786C140.707 63.3157 141.485 64.9134 142.035 66.966L134.184 69.7038C133.564 67.2605 133.394 65.3071 133.693 63.8463Z" fill="white"/>
<path d="M88.3657 47.5039C86.768 47.0229 86.3495 44.9411 87.6429 43.8857C91.4002 40.8214 96.2606 38.0953 102.259 35.6199C96.2577 38.0953 90.8881 39.5939 86.0569 40.075C84.3948 40.2412 83.2097 38.4743 83.9998 37.0077C86.2939 32.7422 89.7381 28.3717 94.3293 23.7942C89.7381 28.3717 85.3517 31.8063 81.0706 34.0892C79.5987 34.8764 77.8255 33.6956 77.9922 32.0395C78.4721 27.2258 79.9791 21.8757 82.4635 15.8929C79.9791 21.8728 77.2461 26.7156 74.1677 30.4593C73.1084 31.748 71.0191 31.334 70.5362 29.7391C69.1316 25.1062 68.4674 19.5899 68.4674 13.1172C68.4674 19.5899 67.8002 25.1033 66.3956 29.7362C65.9128 31.331 63.8235 31.7451 62.7642 30.4564C59.6858 26.7127 56.9557 21.8699 54.4684 15.8899C56.9557 21.8728 58.4597 27.2229 58.9426 32.0366C59.1093 33.6927 57.3361 34.8735 55.8642 34.0863C51.5831 31.8004 47.1967 28.3659 42.6055 23.7913C47.1996 28.3688 50.6438 32.7364 52.938 37.0019C53.728 38.4685 52.5429 40.2353 50.8808 40.0691C46.0467 39.591 40.6771 38.0894 34.6754 35.6141C40.6771 38.0894 45.5375 40.8126 49.2948 43.8798C50.5882 44.9353 50.1727 47.017 48.572 47.4981C43.9223 48.8976 38.3888 49.5595 31.8926 49.5595H51.1237C52.2005 49.5595 53.0872 48.7489 53.2189 47.6818C53.2189 47.676 53.2189 47.6701 53.2189 47.6643C53.3096 46.9237 53.4559 46.2007 53.649 45.5009C53.9914 44.2589 54.4859 43.081 55.1092 41.9876C55.4779 41.3491 55.8905 40.7368 56.3411 40.1595C57.1254 39.1565 58.0296 38.2556 59.0333 37.4771C59.6156 37.0252 60.2272 36.6141 60.8709 36.2497C61.9683 35.6257 63.1475 35.133 64.3941 34.7948C65.0993 34.6024 65.825 34.4566 66.5654 34.3633C67.1916 34.2904 67.8236 34.2496 68.4703 34.2496C69.117 34.2496 69.7491 34.2904 70.3724 34.3633C71.1156 34.4566 71.8413 34.6024 72.5436 34.7948C73.7902 35.133 74.9695 35.6257 76.0668 36.2497C76.7106 36.6141 77.3221 37.0252 77.9045 37.4771C78.9111 38.2556 79.8153 39.1565 80.5966 40.1595C81.0501 40.7368 81.4627 41.3491 81.8285 41.9876C82.4518 43.081 82.9463 44.2589 83.2887 45.5009C83.4818 46.2007 83.6281 46.9237 83.7189 47.6643C83.7189 47.6701 83.7189 47.6789 83.7189 47.6847C83.8476 48.7489 84.7372 49.5595 85.814 49.5595H105.048C98.5519 49.5595 93.0155 48.8976 88.3657 47.4981V47.5039Z" fill="white"/>
</svg>
