<svg width="237" height="60" viewBox="0 0 237 60" fill="none" xmlns="http://www.w3.org/2000/svg">
<rect x="1" y="1" width="235" height="58" rx="29" fill="url(#paint0_radial_285_180)"/>
<rect x="1" y="1" width="235" height="58" rx="29" stroke="url(#paint1_radial_285_180)" stroke-width="2"/>
<path d="M41.34 37.5V23.22H44.4V35.04H52.1V37.5H41.34ZM58.8033 37.78C57.6166 37.78 56.5833 37.5467 55.7033 37.08C54.8366 36.6133 54.1699 35.9733 53.7033 35.16C53.2366 34.3467 53.0033 33.4133 53.0033 32.36C53.0033 31.72 53.0899 31.1267 53.2633 30.58C53.4366 30.02 53.6833 29.52 54.0033 29.08C54.3366 28.64 54.7366 28.26 55.2033 27.94C55.6699 27.62 56.2033 27.3733 56.8033 27.2C57.4166 27.0267 58.0833 26.94 58.8033 26.94C59.6166 26.94 60.3699 27.0533 61.0633 27.28C61.7566 27.5067 62.3499 27.86 62.8433 28.34C63.3366 28.82 63.7099 29.4467 63.9633 30.22C64.2299 30.9933 64.3499 31.9267 64.3233 33.02H54.9033V31.34H61.5033C61.4366 30.9267 61.3299 30.5733 61.1833 30.28C61.0499 29.9867 60.8633 29.7467 60.6233 29.56C60.3833 29.36 60.1099 29.2133 59.8033 29.12C59.4966 29.0267 59.1566 28.98 58.7833 28.98C58.3833 28.98 58.0233 29.0333 57.7033 29.14C57.3833 29.2467 57.1033 29.4 56.8633 29.6C56.6366 29.8 56.4433 30.04 56.2833 30.32C56.1366 30.5867 56.0233 30.8933 55.9433 31.24C55.8766 31.5867 55.8433 31.96 55.8433 32.36C55.8433 33.0133 55.9433 33.6 56.1433 34.12C56.3566 34.6267 56.6833 35.0267 57.1233 35.32C57.5766 35.6 58.1433 35.74 58.8233 35.74C59.4366 35.74 59.9499 35.64 60.3633 35.44C60.7899 35.2267 61.0966 34.9467 61.2833 34.6H64.2433C64.1099 35.1467 63.8233 35.6667 63.3833 36.16C62.9566 36.64 62.3633 37.0333 61.6033 37.34C60.8433 37.6333 59.9099 37.78 58.8033 37.78ZM70.4833 37.5C69.5099 37.5 68.7299 37.2333 68.1433 36.7C67.5699 36.1667 67.2833 35.4267 67.2833 34.48V24.44H70.2033V33.9C70.2033 34.38 70.3299 34.7533 70.5833 35.02C70.8499 35.2733 71.2099 35.4 71.6633 35.4H73.1033V37.5H70.4833ZM65.1833 29.32V27.22H67.6033V29.32H65.1833ZM69.8833 29.32V27.22H73.1033V29.32H69.8833ZM74.9867 28.48L76.0667 22.6H78.9867L77.0667 28.48H74.9867ZM84.65 37.78C83.7833 37.78 83.03 37.6933 82.39 37.52C81.75 37.36 81.21 37.1333 80.77 36.84C80.3433 36.5333 80.0167 36.1867 79.79 35.8C79.5633 35.4 79.43 34.96 79.39 34.48H82.31C82.3767 34.76 82.5033 34.9933 82.69 35.18C82.8767 35.3667 83.1367 35.5133 83.47 35.62C83.8033 35.7133 84.21 35.76 84.69 35.76C85.1433 35.76 85.5233 35.7133 85.83 35.62C86.15 35.5267 86.39 35.3933 86.55 35.22C86.71 35.0333 86.79 34.82 86.79 34.58C86.79 34.34 86.69 34.1333 86.49 33.96C86.3033 33.7867 86.0167 33.66 85.63 33.58L83.03 33.12C81.8967 32.9333 81.05 32.6 80.49 32.12C79.9433 31.6267 79.67 30.98 79.67 30.18C79.67 29.7 79.7767 29.26 79.99 28.86C80.2167 28.46 80.5367 28.12 80.95 27.84C81.3767 27.56 81.8833 27.34 82.47 27.18C83.07 27.02 83.7367 26.94 84.47 26.94C85.4967 26.94 86.3633 27.0667 87.07 27.32C87.79 27.56 88.3433 27.9067 88.73 28.36C89.13 28.8133 89.3633 29.36 89.43 30H86.51C86.47 29.7867 86.3633 29.6067 86.19 29.46C86.03 29.3 85.8033 29.1733 85.51 29.08C85.23 28.9867 84.8767 28.94 84.45 28.94C84.05 28.94 83.7033 28.9867 83.41 29.08C83.13 29.1733 82.91 29.3 82.75 29.46C82.6033 29.62 82.53 29.8067 82.53 30.02C82.53 30.3 82.6433 30.52 82.87 30.68C83.0967 30.8267 83.3833 30.9333 83.73 31L86.51 31.46C87.07 31.5533 87.59 31.7133 88.07 31.94C88.5633 32.1533 88.9567 32.4667 89.25 32.88C89.5567 33.28 89.71 33.7933 89.71 34.42C89.71 34.98 89.59 35.4667 89.35 35.88C89.11 36.2933 88.7633 36.6467 88.31 36.94C87.87 37.22 87.3367 37.4267 86.71 37.56C86.0833 37.7067 85.3967 37.78 84.65 37.78ZM104.065 37.76C102.531 37.76 101.185 37.46 100.025 36.86C98.8645 36.2467 97.9645 35.38 97.3245 34.26C96.6979 33.14 96.3845 31.84 96.3845 30.36C96.3845 29.6133 96.4645 28.9133 96.6245 28.26C96.7979 27.6067 97.0379 27.0067 97.3445 26.46C97.6645 25.9 98.0445 25.4067 98.4845 24.98C98.9379 24.54 99.4445 24.1733 100.005 23.88C100.578 23.5867 101.205 23.36 101.885 23.2C102.565 23.04 103.291 22.96 104.065 22.96C105.411 22.96 106.598 23.1667 107.625 23.58C108.665 23.98 109.498 24.5533 110.125 25.3C110.751 26.0467 111.118 26.9267 111.225 27.94H108.005C107.885 27.4067 107.638 26.9533 107.265 26.58C106.905 26.1933 106.458 25.9 105.925 25.7C105.391 25.4867 104.778 25.38 104.085 25.38C103.631 25.38 103.198 25.4333 102.785 25.54C102.385 25.6467 102.018 25.8 101.685 26C101.351 26.2 101.051 26.44 100.785 26.72C100.531 27 100.311 27.3267 100.125 27.7C99.9512 28.0733 99.8179 28.4867 99.7245 28.94C99.6312 29.38 99.5845 29.8533 99.5845 30.36C99.5845 31.3733 99.7712 32.2533 100.145 33C100.518 33.7333 101.038 34.3067 101.705 34.72C102.385 35.12 103.178 35.32 104.085 35.32C104.778 35.32 105.398 35.22 105.945 35.02C106.491 34.82 106.945 34.5267 107.305 34.14C107.678 33.7533 107.938 33.28 108.085 32.72H111.305C111.145 33.7867 110.745 34.7 110.105 35.46C109.478 36.2067 108.651 36.78 107.625 37.18C106.611 37.5667 105.425 37.76 104.065 37.76ZM113.19 37.5V27.22H116.13V30.52L115.91 30.42C116.084 29.6333 116.33 29.0067 116.65 28.54C116.97 28.0733 117.364 27.74 117.83 27.54C118.297 27.3267 118.85 27.22 119.49 27.22H120.31V29.9H119.19C118.55 29.9 118.004 30.04 117.55 30.32C117.097 30.6 116.744 31 116.49 31.52C116.25 32.0267 116.13 32.6333 116.13 33.34V37.5H113.19ZM127.026 37.78C125.839 37.78 124.806 37.5467 123.926 37.08C123.059 36.6133 122.393 35.9733 121.926 35.16C121.459 34.3467 121.226 33.4133 121.226 32.36C121.226 31.72 121.313 31.1267 121.486 30.58C121.659 30.02 121.906 29.52 122.226 29.08C122.559 28.64 122.959 28.26 123.426 27.94C123.893 27.62 124.426 27.3733 125.026 27.2C125.639 27.0267 126.306 26.94 127.026 26.94C127.839 26.94 128.593 27.0533 129.286 27.28C129.979 27.5067 130.573 27.86 131.066 28.34C131.559 28.82 131.933 29.4467 132.186 30.22C132.453 30.9933 132.573 31.9267 132.546 33.02H123.126V31.34H129.726C129.659 30.9267 129.553 30.5733 129.406 30.28C129.273 29.9867 129.086 29.7467 128.846 29.56C128.606 29.36 128.333 29.2133 128.026 29.12C127.719 29.0267 127.379 28.98 127.006 28.98C126.606 28.98 126.246 29.0333 125.926 29.14C125.606 29.2467 125.326 29.4 125.086 29.6C124.859 29.8 124.666 30.04 124.506 30.32C124.359 30.5867 124.246 30.8933 124.166 31.24C124.099 31.5867 124.066 31.96 124.066 32.36C124.066 33.0133 124.166 33.6 124.366 34.12C124.579 34.6267 124.906 35.0267 125.346 35.32C125.799 35.6 126.366 35.74 127.046 35.74C127.659 35.74 128.173 35.64 128.586 35.44C129.013 35.2267 129.319 34.9467 129.506 34.6H132.466C132.333 35.1467 132.046 35.6667 131.606 36.16C131.179 36.64 130.586 37.0333 129.826 37.34C129.066 37.6333 128.133 37.78 127.026 37.78ZM137.524 37.78C136.377 37.78 135.477 37.5133 134.824 36.98C134.184 36.4333 133.864 35.7 133.864 34.78C133.864 34.18 134.004 33.66 134.284 33.22C134.577 32.78 135.01 32.42 135.584 32.14C136.17 31.8467 136.89 31.6467 137.744 31.54L140.544 31.18C140.877 31.1267 141.117 31.0267 141.264 30.88C141.41 30.7333 141.484 30.5333 141.484 30.28V30.26C141.484 29.98 141.404 29.74 141.244 29.54C141.084 29.34 140.85 29.1867 140.544 29.08C140.25 28.9733 139.884 28.92 139.444 28.92C138.79 28.92 138.27 29.0133 137.884 29.2C137.497 29.3867 137.264 29.68 137.184 30.08H134.304C134.397 29.3733 134.67 28.7933 135.124 28.34C135.59 27.8733 136.19 27.5267 136.924 27.3C137.67 27.06 138.53 26.94 139.504 26.94C140.584 26.94 141.484 27.0867 142.204 27.38C142.937 27.66 143.484 28.08 143.844 28.64C144.204 29.2 144.384 29.9 144.384 30.74V37.5H141.644V34.82L141.924 35.12C141.67 35.7467 141.324 36.2533 140.884 36.64C140.457 37.0267 139.957 37.3133 139.384 37.5C138.824 37.6867 138.204 37.78 137.524 37.78ZM138.504 35.7C138.957 35.7 139.364 35.6267 139.724 35.48C140.084 35.3333 140.397 35.1333 140.664 34.88C140.944 34.6133 141.15 34.3133 141.284 33.98C141.417 33.6333 141.484 33.28 141.484 32.92V31.64L141.984 32.22C141.797 32.38 141.584 32.5 141.344 32.58C141.104 32.6467 140.764 32.72 140.324 32.8L138.244 33.14C137.777 33.2333 137.417 33.3867 137.164 33.6C136.924 33.8133 136.804 34.0867 136.804 34.42C136.804 34.8333 136.957 35.1533 137.264 35.38C137.57 35.5933 137.984 35.7 138.504 35.7ZM150.874 37.5C149.901 37.5 149.121 37.2333 148.534 36.7C147.961 36.1667 147.674 35.4267 147.674 34.48V24.44H150.594V33.9C150.594 34.38 150.721 34.7533 150.974 35.02C151.241 35.2733 151.601 35.4 152.054 35.4H153.494V37.5H150.874ZM145.574 29.32V27.22H147.994V29.32H145.574ZM150.274 29.32V27.22H153.494V29.32H150.274ZM160.385 37.78C159.199 37.78 158.165 37.5467 157.285 37.08C156.419 36.6133 155.752 35.9733 155.285 35.16C154.819 34.3467 154.585 33.4133 154.585 32.36C154.585 31.72 154.672 31.1267 154.845 30.58C155.019 30.02 155.265 29.52 155.585 29.08C155.919 28.64 156.319 28.26 156.785 27.94C157.252 27.62 157.785 27.3733 158.385 27.2C158.999 27.0267 159.665 26.94 160.385 26.94C161.199 26.94 161.952 27.0533 162.645 27.28C163.339 27.5067 163.932 27.86 164.425 28.34C164.919 28.82 165.292 29.4467 165.545 30.22C165.812 30.9933 165.932 31.9267 165.905 33.02H156.485V31.34H163.085C163.019 30.9267 162.912 30.5733 162.765 30.28C162.632 29.9867 162.445 29.7467 162.205 29.56C161.965 29.36 161.692 29.2133 161.385 29.12C161.079 29.0267 160.739 28.98 160.365 28.98C159.965 28.98 159.605 29.0333 159.285 29.14C158.965 29.2467 158.685 29.4 158.445 29.6C158.219 29.8 158.025 30.04 157.865 30.32C157.719 30.5867 157.605 30.8933 157.525 31.24C157.459 31.5867 157.425 31.96 157.425 32.36C157.425 33.0133 157.525 33.6 157.725 34.12C157.939 34.6267 158.265 35.0267 158.705 35.32C159.159 35.6 159.725 35.74 160.405 35.74C161.019 35.74 161.532 35.64 161.945 35.44C162.372 35.2267 162.679 34.9467 162.865 34.6H165.825C165.692 35.1467 165.405 35.6667 164.965 36.16C164.539 36.64 163.945 37.0333 163.185 37.34C162.425 37.6333 161.492 37.78 160.385 37.78Z" fill="white"/>
<path fill-rule="evenodd" clip-rule="evenodd" d="M190.875 27.3675L190.36 28.4962L191.199 29.4112L192.894 31.2612L190.401 30.9775L189.169 30.8362L188.556 31.9162L187.322 34.1L186.822 31.6412L186.575 30.4262L185.359 30.1787L182.901 29.6787L185.084 28.4425L186.164 27.8312L186.024 26.5987L185.74 24.1062L187.587 25.8012L188.502 26.6387L189.631 26.125L191.914 25.085L190.875 27.3675ZM185.775 21.595L188.856 24.42L192.66 22.6862C193.712 22.2062 194.795 23.29 194.316 24.3412L192.582 28.145L195.406 31.2262C196.187 32.0787 195.492 33.4437 194.344 33.3137L190.19 32.8387L188.132 36.4775C187.562 37.4837 186.05 37.2437 185.82 36.1112L184.986 32.015L180.89 31.1825C179.757 30.9512 179.517 29.4387 180.524 28.87L184.161 26.8112L183.689 22.6587C183.557 21.5087 184.922 20.8125 185.775 21.595ZM183.912 34.4125C184.005 34.3266 184.078 34.2231 184.13 34.1081C184.181 33.9931 184.208 33.869 184.211 33.7431C184.213 33.6172 184.19 33.4922 184.143 33.3755C184.095 33.2587 184.025 33.1527 183.936 33.0637C183.847 32.9746 183.741 32.9045 183.624 32.8573C183.508 32.8102 183.383 32.787 183.257 32.7892C183.131 32.7914 183.007 32.819 182.892 32.8702C182.777 32.9215 182.673 32.9953 182.587 33.0875L178.212 37.4625C178.12 37.5483 178.046 37.6518 177.995 37.7668C177.944 37.8818 177.916 38.0059 177.914 38.1318C177.912 38.2577 177.935 38.3827 177.982 38.4995C178.029 38.6162 178.1 38.7222 178.189 38.8113C178.278 38.9003 178.384 38.9705 178.5 39.0176C178.617 39.0648 178.742 39.0879 178.868 39.0857C178.994 39.0835 179.118 39.0559 179.233 39.0047C179.348 38.9534 179.452 38.8796 179.537 38.7875L183.912 34.4125Z" fill="white"/>
<defs>
<radialGradient id="paint0_radial_285_180" cx="0" cy="0" r="1" gradientTransform="matrix(118.5 30 -118.5 30 118.5 30)" gradientUnits="userSpaceOnUse">
<stop stop-color="#BDBBF5"/>
<stop offset="0.602066" stop-color="#4D48E2"/>
<stop offset="1" stop-color="#211ADB"/>
</radialGradient>
<radialGradient id="paint1_radial_285_180" cx="0" cy="0" r="1" gradientUnits="userSpaceOnUse" gradientTransform="translate(118.5 30) scale(118.5 131)">
<stop stop-color="#211ADB"/>
<stop offset="0.5" stop-color="#4D48E2"/>
<stop offset="1" stop-color="#BDBBF5"/>
</radialGradient>
</defs>
</svg>
