<svg width="416" height="241" viewBox="0 0 416 241" fill="none" xmlns="http://www.w3.org/2000/svg">
<g filter="url(#filter0_d_51_785)">
<path d="M382.158 68.1258L70.1938 6.46354C52.1338 2.89383 34.5993 14.6406 31.0296 32.7007L11.639 130.803C8.06927 148.863 19.816 166.397 37.8761 169.967L349.84 231.629C367.901 235.199 385.435 223.452 389.005 205.392L408.395 107.29C411.965 89.2299 400.218 71.6955 382.158 68.1258Z" fill="#211ADB"/>
<path d="M109.089 109.032C105.637 110.443 102.062 111.293 98.3628 111.574C93.9784 111.91 90.2171 111.411 87.0716 110.083C83.9343 108.749 81.4824 106.6 79.7299 103.63C78.2918 101.192 77.365 98.2223 76.9341 94.7325L109.31 93.5547C109.361 92.3349 109.353 91.1167 109.284 89.9071C109.026 85.4457 107.938 81.6017 106.017 78.3883C104.096 75.1749 101.383 72.7562 97.8834 71.1335C94.3836 69.5107 90.1949 68.8866 85.3187 69.2548C80.3818 69.6313 76.1293 71.0877 72.5598 73.6305C68.989 76.1798 66.3337 79.5352 64.5937 83.6968C62.8461 87.8637 62.1275 92.5602 62.4303 97.7915C62.7201 102.823 63.9989 107.228 66.2629 110.992C68.5268 114.756 71.5854 117.582 75.44 119.466C79.2946 121.349 83.7601 122.095 88.8158 121.715C93.5669 121.35 97.725 120.106 101.285 117.975C104.85 115.853 107.795 113.486 110.126 110.875L109.089 109.032ZM78.2126 78.1524C79.5674 74.8457 81.8519 73.0682 85.0648 72.8267C87.9582 72.6103 90.242 73.9859 91.9012 76.9641C93.5586 79.9488 94.529 83.8579 94.8099 88.7043L76.6751 91.501C76.4151 85.7548 76.923 81.2953 78.2126 78.1524Z" fill="white"/>
<path d="M152.205 126.688L151.669 124.625C150.044 124.888 148.386 124.988 146.703 124.914C145.021 124.84 143.387 124.653 141.816 124.342C138.366 123.66 135.44 122.219 133.045 120.013C130.649 117.813 129.021 114.909 128.159 111.313C127.297 107.718 127.325 103.598 128.244 98.9485C128.951 95.371 129.969 92.3782 131.292 89.9622C132.62 87.554 134.108 85.8232 135.763 84.7776C137.418 83.732 139.093 83.3834 140.783 83.7174C142.656 84.0877 144.017 85.0907 144.861 86.7253C145.704 88.3598 146.377 91.0548 146.894 94.8062L147.933 102.446L149.838 102.823L159.981 87.3084C157.929 85.9241 155.467 84.6219 152.589 83.4007C149.717 82.1807 146.525 81.2235 143.012 80.5292C138.408 79.6192 133.991 79.8538 129.753 81.2383C125.516 82.6162 121.899 85.1019 118.891 88.6799C115.89 92.2593 113.836 96.8142 112.744 102.341C111.751 107.363 111.835 111.947 113.001 116.091C114.168 120.236 116.267 123.669 119.314 126.391C122.361 129.113 126.157 130.924 130.698 131.822C134.028 132.48 137.149 132.539 140.052 132.006C142.956 131.472 145.374 130.706 147.299 129.721C149.226 128.729 150.854 127.719 152.194 126.679L152.205 126.688Z" fill="white"/>
<path d="M172.103 133.169C171.893 132.475 171.947 131.344 172.257 129.775L184.636 67.1464L162.805 65.8622L162.395 67.9354L165.856 69.9921C166.797 70.6334 167.369 71.3174 167.573 72.044C167.777 72.7707 167.697 74.0392 167.336 75.8639L157.266 126.812C156.955 128.381 156.574 129.447 156.116 130.009C155.658 130.571 154.864 131.005 153.738 131.299L149.719 132.068L149.329 134.043L176.845 139.482L177.235 137.507L173.812 135.267C172.884 134.56 172.313 133.863 172.103 133.169Z" fill="white"/>
<path d="M207.754 143.539L204.235 141.28C203.307 140.574 202.737 139.877 202.527 139.183C202.317 138.489 202.37 137.358 202.68 135.788L210.908 94.1601L189.078 92.8761L188.668 94.9493L192.128 97.0059C193.081 97.5884 193.657 98.2527 193.855 99.0121C194.052 99.7714 193.968 101.059 193.608 102.878L187.689 132.825C187.379 134.395 186.991 135.46 186.54 136.023C186.081 136.584 185.287 137.019 184.161 137.313L180.143 138.081L179.753 140.057L207.363 145.514L207.754 143.539Z" fill="white"/>
<path d="M204.525 86.3406C207.004 86.8305 209.132 86.5037 210.9 85.3512C212.668 84.1989 213.778 82.495 214.225 80.2322C214.672 77.9693 214.262 76.067 213.034 74.3224C211.806 72.5779 209.949 71.4633 207.471 70.9734C204.992 70.4835 202.845 70.8065 201.051 71.9539C199.252 73.1002 198.136 74.7686 197.701 76.9661C197.267 79.1636 197.645 81.2296 198.873 82.9741C200.101 84.7186 201.989 85.8394 204.532 86.3419L204.525 86.3406Z" fill="white"/>
<path d="M265.509 116.308C264.785 112.312 263.335 109.171 261.14 106.882C258.952 104.587 256.165 103.106 252.772 102.435C249.689 101.825 246.79 101.905 244.094 102.677C241.49 103.419 238.797 104.545 236.019 106.035L237.334 99.3834L215.685 98.1419L215.276 100.209L218.831 102.284C219.784 102.866 220.36 103.531 220.557 104.29C220.755 105.049 220.672 106.331 220.311 108.156L210.259 159.012C209.949 160.581 209.565 161.661 209.1 162.255C208.635 162.85 207.846 163.265 206.731 163.499L202.599 164.348L202.226 166.231L229.749 171.671L230.122 169.788L226.623 167.431C225.675 166.789 225.103 166.105 224.905 165.379C224.701 164.653 224.757 163.508 225.067 161.939L227.783 148.198C228.96 149.137 230.307 150.015 231.834 150.847C233.904 151.976 236.215 152.787 238.756 153.289C242.812 154.09 246.62 153.783 250.171 152.365C253.72 150.953 256.786 148.406 259.37 144.744C261.949 141.081 263.806 136.358 264.949 130.577C266.092 124.795 266.228 120.296 265.509 116.308ZM245.477 141.264C243.93 143.989 242.183 145.764 240.225 146.586C238.267 147.409 236.078 147.574 233.663 147.097C232.572 146.881 231.388 146.505 230.114 145.954C229.472 145.684 228.896 145.421 228.383 145.163L235.548 108.911C236.427 108.711 237.353 108.568 238.319 108.487C239.694 108.365 241.018 108.429 242.292 108.681C244.473 109.112 246.253 110.055 247.633 111.497C249.011 112.945 249.868 115.14 250.199 118.073C250.529 121.012 250.226 124.867 249.283 129.635C248.29 134.657 247.021 138.531 245.477 141.264Z" fill="white"/>
<path d="M299.117 134.395L290.366 127.575C287.819 125.509 286.109 123.716 285.247 122.207C284.379 120.697 284.1 119.194 284.398 117.684C284.697 116.173 285.565 114.965 286.968 114.23C288.372 113.495 290.252 113.363 292.617 113.831C294.194 114.142 295.526 114.698 296.625 115.506C297.724 116.308 298.732 117.404 299.657 118.797C300.574 120.188 301.611 121.969 302.753 124.152L305.82 129.651L307.82 130.046L310.501 116.482C305.336 113.633 300.061 111.68 294.675 110.615C289.951 109.682 285.882 109.577 282.468 110.309C279.053 111.041 276.366 112.365 274.412 114.296C272.458 116.227 271.22 118.511 270.7 121.146C270.054 124.41 270.334 127.306 271.533 129.826C272.732 132.346 274.877 134.857 277.972 137.364L286.722 144.184C289.207 146.238 290.875 148.008 291.718 149.48C292.56 150.951 292.818 152.504 292.496 154.132C292.174 155.761 291.218 157.012 289.632 157.875C288.046 158.737 286.012 158.919 283.533 158.429C281.055 157.939 279.044 156.876 277.514 155.235C275.983 153.593 274.283 151.123 272.419 147.819L268.528 140.785L266.623 140.408L263.831 154.535C266.899 156.188 269.989 157.662 273.1 158.963C276.205 160.263 279.338 161.222 282.485 161.844C287.026 162.742 291.003 162.807 294.43 162.051C297.849 161.293 300.572 159.921 302.6 157.944C304.63 155.966 305.912 153.59 306.458 150.83C307.14 147.377 306.864 144.4 305.626 141.906C304.389 139.412 302.223 136.911 299.132 134.411L299.117 134.395Z" fill="white"/>
<path d="M356.157 158.425C352.705 159.842 349.129 160.692 345.424 160.972C341.046 161.303 337.284 160.81 334.14 159.475C330.995 158.147 328.549 155.999 326.798 153.023C325.36 150.584 324.433 147.615 323.995 144.13L356.378 142.947C356.43 141.727 356.42 140.516 356.352 139.299C356.094 134.838 355.004 131.001 353.084 127.787C351.163 124.574 348.45 122.155 344.95 120.532C341.444 118.908 337.257 118.278 332.385 118.654C327.449 119.03 323.196 120.487 319.627 123.029C316.056 125.579 313.394 128.933 311.654 133.094C309.913 137.263 309.194 141.959 309.499 147.184C309.787 152.222 311.061 156.619 313.323 160.389C315.587 164.153 318.646 166.98 322.507 168.864C326.363 170.741 330.821 171.493 335.884 171.108C340.628 170.747 344.786 169.503 348.352 167.374C351.917 165.252 354.863 162.878 357.188 160.266L356.157 158.425ZM325.275 127.543C326.634 124.245 328.919 122.467 332.125 122.224C335.027 122.003 337.303 123.384 338.968 126.363C340.627 129.341 341.596 133.257 341.872 138.095L323.737 140.892C323.483 135.147 323.983 130.693 325.275 127.543Z" fill="white"/>
</g>
<defs>
<filter id="filter0_d_51_785" x="-5.67529" y="0" width="420.851" height="246.242" filterUnits="userSpaceOnUse" color-interpolation-filters="sRGB">
<feFlood flood-opacity="0" result="BackgroundImageFix"/>
<feColorMatrix in="SourceAlpha" type="matrix" values="0 0 0 0 0 0 0 0 0 0 0 0 0 0 0 0 0 0 127 0" result="hardAlpha"/>
<feOffset dx="-11" dy="8"/>
<feComposite in2="hardAlpha" operator="out"/>
<feColorMatrix type="matrix" values="0 0 0 0 0.129412 0 0 0 0 0.101961 0 0 0 0 0.858824 0 0 0 0.5 0"/>
<feBlend mode="normal" in2="BackgroundImageFix" result="effect1_dropShadow_51_785"/>
<feBlend mode="normal" in="SourceGraphic" in2="effect1_dropShadow_51_785" result="shape"/>
</filter>
</defs>
</svg>
