<?xml version="1.0" encoding="UTF-8"?>
<svg id="Layer_2" data-name="Layer 2" xmlns="http://www.w3.org/2000/svg" viewBox="0 0 341.04 233.18">
  <defs>
    <style>
      .cls-1 {
        fill: #90b7e3;
      }
    </style>
  </defs>
  <g id="Layer_8" data-name="Layer 8">
    <path class="cls-1" d="M340.08,45.23c.98,3.67.92,7.1.94,10.82-.11,41.31.08,98.1,0,139.23-.04,8.4.55,13.1-2.46,20.11-4.15,10.21-16.38,18.3-26.89,17.61-34.91-.65-251.87,1.13-288.73-.59-6.69-1.29-16.08-7.8-19.37-14.83C-.42,210.15,0,204.64.02,195.6c-.07-36.99.05-92.29,0-126.23-.02-5.89,0-10.3,0-15.35,0-3.73.31-7.32,1.57-10.88,2.21-6.17,6.28-11.94,12.87-15.48,4.9-2.61,10.56-3.49,15.84-4.98,10.83-2.49,14.42-10.43,20.73-17.93C55.49-.31,62.39.06,68.68,0,83.09,0,110.69,0,125.33,0c4.97.09,10.21-.28,14.6,2.05,6.93,4.41,9.93,13.76,16.11,18.62,5.54,3.95,11.59,2.26,18.3,2.63,36,.24,112.57-.42,140.65.23,11.39.95,22.29,10.36,25.06,21.59l.03.12Z"/>
  </g>
</svg>