<?xml version="1.0" encoding="UTF-8"?>
<svg id="Horizontal_Lockup_Mark_" data-name="Horizontal Lockup (Mark)" xmlns="http://www.w3.org/2000/svg" viewBox="0 0 642.46 350">
  <defs>
    <style>
      .cls-1 {
        fill: #010101;
      }
    </style>
  </defs>
  <path class="cls-1" d="M347.89,100.16l.09-.15c3.25-5.56-.81-12.52-7.3-12.52h-44.68c-29.55,0-48.03,31.66-33.25,56.99l57.78,99.02c14.77,25.33,51.72,25.33,66.5,0h0c4.62-7.92,4.63-17.68,0-25.61l-39.14-67.08c-9.25-15.87-9.25-34.8,0-50.65Z"/>
  <path class="cls-1" d="M507.78,87.5h-115.56c-29.55,0-48.03,31.66-33.25,56.99l42.91,73.55,7.38,12.66,7.47,12.8c14.78,25.33,51.73,25.33,66.51,0l57.77-99.02c14.78-25.33-3.7-56.99-33.25-56.99Z"/>
  <path class="cls-1" d="M225.71,106.49c-14.78-25.33-51.72-25.33-66.5,0l-57.78,99.02c-14.78,25.33,3.69,56.99,33.25,56.99h115.56c29.56,0,48.03-31.66,33.25-56.99l-57.78-99.02Z"/>
</svg>
